<?xml version="1.0" standalone="no"?>
<!DOCTYPE svg PUBLIC "-//W3C//DTD SVG 1.1//EN" "http://www.w3.org/Graphics/SVG/1.1/DTD/svg11.dtd" >
<svg xmlns="http://www.w3.org/2000/svg">
<metadata></metadata>
<defs>
<font id="chalkpaintmedium" horiz-adv-x="20" >
<font-face units-per-em="2048" ascent="1638" descent="-410" />
<missing-glyph horiz-adv-x="860" />
<glyph horiz-adv-x="0" />
<glyph unicode="&#xd;" horiz-adv-x="681" />
<glyph unicode=" "  horiz-adv-x="860" />
<glyph unicode="&#x09;" horiz-adv-x="860" />
<glyph unicode="&#xa0;" horiz-adv-x="860" />
<glyph unicode="!" horiz-adv-x="417" d="M23 92q-8 20 18.5 31t24.5 29q-2 16 27.5 37.5t60 28.5t45.5 -9q10 -16 -7.5 -33.5t-37.5 -13.5q-25 8 -45 -17q-16 -18 6 -26q23 -8 43 8q20 14 29.5 8t0.5 -29q-8 -20 -53 -20q-23 0 -46 -4t-33.5 -6t-19.5 1t-13 15zM43 495.5q-6 28.5 18 36.5q43 14 52.5 20.5 t2.5 12.5t-20.5 32t-13.5 62q0 31 5 38.5t24 0.5q20 -4 25 5.5t-13 21.5q-20 12 3.5 84t59 148.5t35.5 87t40 41t54 30.5q15 1 15 19q0 16 14 31.5t31.5 13.5t21.5 -29q4 -25 -54 -206t-75 -189q-23 -14 -35 -55.5t0 -63.5q25 -47 -4 -150q-14 -57 -32 -55q-4 2 -11 8 q-12 23 -26 15q-8 -6 -2 -19q10 -31 -17.5 -29.5t-58.5 29.5q-33 31 -39 59.5zM137 492q16 -10 36 -2.5t32 32.5q16 27 -4 35q-12 4 -31.5 -9t-31 -31.5t-1.5 -24.5z" />
<glyph unicode="#" horiz-adv-x="1236" d="M20 766q0 12 51.5 31.5t92.5 23.5q53 2 111.5 14.5t70.5 22.5q18 14 19 66q0 33 8 49t18 19t15.5 14.5t1.5 33.5q-6 33 11 54.5t44 13.5q25 -8 35 20.5t18 28.5q10 0 12 -16.5t-5 -44t-21 -58.5q-29 -57 -25 -116l4 -60h76q90 0 120 13.5t40 58.5q10 35 19 43t50 8 q59 2 76 -16.5t-8 -59.5q-23 -37 -8 -75l14 -39l31 39q23 29 44 32.5t120 -2.5q102 -4 132 -12t30 -31q0 -55 -244 -69q-109 -6 -134.5 -13.5t-41.5 -31.5q-25 -35 -25 -56.5t-33 -58.5q-23 -25 -24.5 -33t14.5 -22q25 -18 141 -25q82 -6 101.5 -11t21.5 -26 q4 -29 -18.5 -47t-44.5 -2q-14 10 -28.5 5t-24 -15t-34 -19.5t-59.5 -5.5q-37 2 -48 -4t-27 -37q-20 -43 -43 -41q-12 2 -19.5 -22.5t-5.5 -55t12 -43.5q20 -27 -18 -96q-29 -51 -35 -26q-2 6 -2 14q0 14 -7 16t-14.5 -3t-7.5 -11q2 -16 -22.5 -54t-34.5 -36q-8 4 -12 27.5 t-2 61.5t6 75t9 82t7 65q2 47 -1 62.5t-21 21.5q-33 12 -81 -9.5t-67 -53.5q-16 -31 -22 -87.5t-5 -98.5t-15.5 -74.5t-53.5 -32.5q-27 0 -33 -5.5t-2 -21.5q6 -16 2 -19t-20 1q-76 18 -29 82q23 33 20.5 70.5t-11.5 67.5t14 81q20 45 7.5 59t-69.5 14q-66 0 -92 19 q-18 14 -15 19t35 20q25 10 69 24.5t77 25.5t37 15q14 12 28 199v6q2 29 -14 35t-113 14q-12 0 -18 2q-106 8 -107 27zM254 222.5q0 -13.5 14 -13.5q20 0 0 22q-4 4 -8 5q-6 0 -6 -13.5zM315 560.5q-14 -19.5 2 -46.5q14 -20 111 -25q88 -4 119 17.5t57 103.5q23 78 45 86 q16 6 16 10.5t-18 18.5q-27 20 -104 20q-111 0 -111 -49q0 -12 -14 -65q-8 -33 -18.5 -42t-37.5 -9q-33 0 -47 -19.5zM350 703.5q0 -13.5 20.5 -13.5t20.5 13.5t-20.5 13.5t-20.5 -13.5zM666 236.5q0 13.5 14 13.5t14 -13.5t-14 -13.5t-14 13.5zM819 1101.5q0 26.5 27 61.5 q29 35 51 35q20 0 6 -12q-4 -4 -14 -12q-23 -18 -25 -27.5t13 -38.5q20 -41 10 -74l-8 -33l-31 37q-29 37 -29 63.5z" />
<glyph unicode="$" horiz-adv-x="948" d="M20 195.5q0 13.5 13.5 13.5t13.5 -13.5t-13.5 -13.5t-13.5 13.5zM98 315q-2 27 13 31q10 -10 12 -24q0 -12 8 -17.5t20.5 -6.5t29 -8t28.5 -24q25 -29 80 -33q39 -2 49 3.5t18 37.5q12 45 31 45q16 0 17.5 12.5t-13.5 20.5q-4 4 -6 8.5t1 12.5t8 18t13.5 32.5t14.5 47.5 q18 61 51 78q55 27 68 72q8 29 -19 28q-45 0 -20 80q16 51 1.5 82t-50.5 31q-20 0 -26.5 4t-2.5 16q8 18 -17.5 45t-66.5 43q-68 29 8 101q92 84 250 116q20 4 41 7q103 12 117 26q18 18 33.5 11t15.5 -31q0 -35 24 -50q29 -14 25 -52t-35 -42q-29 -4 -28.5 -22.5t-19 -33.5 t-41 -109.5t-19.5 -153.5q2 -80 -3.5 -101.5t-27 -21.5t-50 -52.5t-40.5 -109.5q-10 -45 -39 -65q-16 -12 -18.5 -20.5t2 -16.5t-12.5 -33q-18 -31 -8 -70q8 -29 21.5 -34t75 -5t80 7.5t50.5 48.5q31 35 35 48t-8 27t-12 21.5t10 17.5q14 10 64.5 34t62.5 24q16 0 2 -33 q-6 -14 -16 -23q-20 -16 -13 -47q8 -35 -50 -90t-73 -55q-12 0 -95 -41t-126 -49q-39 -8 -62.5 -35t-37.5 -27q-18 0 -49 -32.5t-54.5 -55t-29.5 -6.5q-8 18 13.5 57t14.5 48q-6 10 -88 37.5t-94 35.5q-16 14 -37 215zM227.5 153.5q0.5 -14.5 14.5 -14.5q18 0 0 23 q-6 6 -9 6q-6 0 -5.5 -14.5zM388 985q-7 -14 3 -24q18 -16 25 2q8 23 24 14q6 -2 2 -14q-4 -14 41 -64q27 -29 41.5 -36t20.5 1t18 12.5t35 0.5q18 -6 21.5 -4.5t1.5 16.5q-2 6 -1 32.5t11 55.5q8 25 11 46t0 34.5t-8 24t-8 14.5l-3 4q-4 -2 -72 -8q-43 -2 -65.5 -13.5 t-57.5 -46.5q-33 -33 -40 -47zM737 457q-6 15 21 35q14 10 23.5 9t23.5 -16q45 -43 -29 -43q-33 0 -39 15zM776 580q0 29 37 2q39 -29 31 -50q-4 -8 -19 -8q-8 0 -14 6.5t-6 14.5q0 23 -14.5 23t-14.5 12zM901 979q0 14 13.5 14t13.5 -14t-13.5 -14t-13.5 14z" />
<glyph unicode="%" horiz-adv-x="1241" d="M25.5 733.5q13.5 24.5 13.5 57.5q0 27 33.5 74.5t33.5 54.5q0 47 97.5 145t161.5 117q31 8 62.5 10t51 -1t19.5 -13q-2 -14 -13 -60q-6 -33 -3 -39t22 0q23 4 30 -11t-14 -28q-8 -6 -5 -11t1 -25.5t-7 -42t-32.5 -64.5t-73.5 -94q-92 -102 -245 -174q-119 -57 -113 -13 q2 8 6 17q14 27 -12.5 51.5t-13 49zM28 -7q-1 3 7 11l9 12t9 13.5t11.5 20.5t9.5 24q12 35 138 200.5t232 284.5q63 72 140.5 173.5t121.5 153.5t74 62q41 14 41 45q0 33 119 146q109 102 109 69q0 -12 -21 -49q-29 -47 -93.5 -128t-74.5 -81t-10 -12t-81 -114.5t-97 -112.5 q-14 -8 -15 -33q0 -14 -31.5 -55t-87 -106.5t-77.5 -94.5q-23 -27 -45.5 -44.5t-34.5 -22.5t-18.5 -12t-0.5 -24q6 -25 -53 -96t-124.5 -131.5t-75.5 -60.5q-8 0 -29 -20.5t-37 -20.5q-14 0 -15 3zM197 793q-18 -125 73 -23q4 4 11 10q49 57 76.5 130t21.5 132 q-2 41 -21.5 54.5t-40.5 -11.5q-20 -29 -66 -141.5t-54 -150.5zM726.5 176.5q-3.5 30.5 12.5 38.5q8 6 33 53t54.5 104.5t87.5 126t124 109.5q80 51 80 17q0 -6 -4 -17q-4 -20 10.5 -46.5t8.5 -49.5q-10 -29 8 -36t39 20q25 29 33 28.5t9 -24t-5.5 -52t-16.5 -40.5 q-18 -27 -19 -66t-81 -117q-115 -113 -260 -174q-96 -41 -92 -2q0 8 10 25q14 25 -8 49q-20 23 -23.5 53.5zM938 256q-12 -61 6 -61q10 0 33.5 25.5t23.5 39.5q0 10 13.5 22.5t28 35t14.5 57.5q0 94 -49 41q-45 -49 -70 -160z" />
<glyph unicode="&#x26;" />
<glyph unicode="'" horiz-adv-x="270" d="M19.5 628q-1.5 7 7 19t15.5 28.5t10 33t-5 34.5q-14 27 -14 49.5t16 57.5q18 47 28.5 138t31.5 114q20 24 16 41.5t32 36t60 16.5q18 -4 23.5 -18.5t7.5 -67.5q2 -55 -6.5 -85t-11.5 -30t10 -37q12 -27 7 -39t-44 -42q-53 -47 -41 -58.5t18 4.5q2 8 13.5 13.5t21.5 4.5 t10 -7q0 -31 -82 -122t-110 -91q-12 0 -13.5 7z" />
<glyph unicode="(" horiz-adv-x="694" d="M23 6q-4 33 1 46.5t25 27.5t23.5 19t-1.5 14.5t-9.5 32t1.5 69.5q6 55 23.5 83t38.5 15q14 -10 25 25q16 45 8 98q-8 51 6 67.5t14 33.5q0 25 50.5 127t90 159.5t39.5 71.5t90.5 124.5t135.5 149.5q66 57 86 43q4 -4 4 -10q-2 -8 -21.5 -41t-51.5 -85t-50 -91 q-20 -41 -52 -78t-32 -55q0 -23 -33 -91.5t-49 -76.5q-14 -8 -14 -41q0 -20 -26 -65.5t-34 -94.5q-6 -39 -20.5 -70.5t-21.5 -45t-1 -21.5q10 -18 -10 -83.5t-41 -76.5q-29 -12 -22 -30q4 -8 20 -6q10 4 17.5 -41.5t13.5 -105.5t10 -79q6 -18 2 -24t-22 -6q-27 0 -37 -15 q-12 -20 -31 -12q-12 6 -6 22q4 10 2 14.5t-12.5 1.5t-18.5 -22.5t-14 -36t-20.5 -25.5t-35.5 7q-20 16 -17 29.5t11.5 27t-8.5 41.5q-18 29 -26 80zM174 -158q10 10 21 -6q14 -25 -2 -35q-7 -2 -17 6q-16 16 -2 35z" />
<glyph unicode=")" horiz-adv-x="638" d="M25 -284.5q8 14.5 23 27.5t26 13q18 0 101 87t91 114q4 16 16.5 25.5t23.5 12.5t17.5 9t2.5 19q-6 14 22.5 130.5t48.5 157.5q10 20 20.5 161.5t17.5 152t10.5 38t6.5 73.5t5 67q4 33 0 47t-11.5 17t-13.5 32t-6 86q0 98 -23 127q-12 20 -11.5 27.5t18.5 17.5 q37 23 55 5.5t8 -64.5q-6 -27 19.5 -69t11.5 -64q-14 -23 -4 -74q6 -33 13 -40t30 -1q29 6 47 -20.5t10 -65.5q-6 -33 6 -41q14 -8 11 -47t-21 -45q-20 -8 -10 -30.5t17 -45.5t-40 -51q-43 -20 -35.5 -46t-13.5 -42q-14 -12 -11 -22.5t34 -41.5l43 -45l-31 -92 q-18 -63 -57 -130t-80 -116t-81 -90t-67.5 -61.5t-35 -20.5t-101.5 -54t-102 -48t0 20.5zM432 143q-6 -12 8.5 -23t22.5 -1q6 4 0 14t-14.5 14.5t-16.5 -4.5zM528 938q14 23 43 8q29 -16 7 -41q-12 -12 -35 3.5t-15 29.5z" />
<glyph unicode="*" horiz-adv-x="731" d="M23 645q-8 4 9 23.5t52 46t76 51.5q43 27 50 39t1 47q-6 27 -15.5 54.5t-11.5 33.5t2 10q6 0 -17.5 27t-48 57.5t-18.5 38.5q8 14 32 15.5t38 -11.5q18 -18 62.5 8.5t60.5 67.5q14 35 20.5 40t18.5 -11q27 -35 43 -21q6 8 2 29q-8 33 0 41q23 20 37 -35q20 -78 -8 -113 q-4 -6 -9 -8q-18 -10 -12 -12q4 0 14 -2q18 0 19.5 -9.5t-2.5 -24.5t8 -34q8 -14 18.5 -13t40.5 17q158 92 158 80v-4q-4 -12 -87 -81.5t-87 -82.5q-2 -20 53 -57q35 -25 43 -36t-2 -28q-12 -27 -4 -33.5t31 7.5q27 16 48 5t21 -44q0 -35 29 -43q39 -10 11.5 -39t-48.5 -16 l-4 4q-10 16 -100 13t-121 -19q-23 -14 -25 -19.5t15 -17.5q25 -16 -4 -19h-27q-47 0 -76 -4q-16 -2 -23 8.5t-14 42.5q-6 31 0.5 51.5t15.5 25.5t16 10.5t3 14.5t-24 27l-33 31l-109 -69q-106 -68 -118 -60zM458 707.5q11 -25.5 44 -29.5q16 -4 22 -1t6 6t-6 11 q-14 26 -18 49q-6 37 -29 41q-12 0 -18 -16q-12 -35 -1 -60.5z" />
<glyph unicode="+" horiz-adv-x="872" d="M23 537q-8 8 21.5 28.5t73.5 38t68 17.5q33 0 101.5 20.5t87.5 34.5q16 12 35 82q16 59 29.5 72.5t52.5 15.5q35 2 34 22q0 8 -5 13.5t-13 3.5q-16 -4 -36.5 12.5t-20.5 32.5q0 23 34 55q14 16 19 6q4 -12 18 -4q16 10 29 -29q12 -41 6 -96q-4 -39 -15.5 -61.5 t-35.5 -44.5q-43 -39 -33 -51q6 -14 79 -14.5t175 14.5q133 16 123 -15q-2 -6 -8 -14q-12 -12 -132 -47t-149 -35q-25 0 -48.5 -48t-43.5 -48q-14 -2 -14 -4q0 -4 20 -19q27 -18 30 -42.5t-18 -43.5q-16 -14 -22 -35.5t-14.5 -33t-34.5 -9.5q-39 4 -51.5 19.5t-3 34t12.5 38 t-5 33.5q-12 14 -3 48t29 46q35 23 -24 27q-29 2 -76 0q-39 -4 -81 -5t-60.5 -2t-39 -4t-38.5 -9q-39 -16 -53 0zM461 240q-10 39 8 39q31 0 46 -38t-11 -55q-29 -16 -43 54z" />
<glyph unicode="," horiz-adv-x="309" d="M29 -98q6 27 14 71.5t15.5 66t19.5 32.5q20 16 20 51q0 25 53.5 85.5t86.5 74.5q61 23 47 -82q-14 -119 -74 -244q-4 -12 -6 -14q-12 -18 -21.5 -18.5t-40.5 14.5q-37 20 -48 13t-11 -50t-27 -60q-53 -35 -28 60z" />
<glyph unicode="-" horiz-adv-x="659" d="M20 379q0 25 82.5 56.5t221.5 62.5q55 12 130.5 19t130 6t54.5 -11q0 -8 -62.5 -26.5t-68.5 -30.5q-12 -18 -66.5 -32.5t-197.5 -35.5q-209 -31 -219 -20q-4 2 -5 12z" />
<glyph unicode="." horiz-adv-x="253" d="M23 65.5q-5 8.5 0 43.5q2 35 15 52t64 50q86 59 88 33q2 -8 -2 -23q-6 -18 -3 -22t18 0q20 8 30 -6q8 -12 -26.5 -46t-54.5 -34q-12 0 -44 -28t-57 -28q-23 0 -28 8.5z" />
<glyph unicode="/" horiz-adv-x="788" d="M20 -209q0 16 50.5 92t81.5 105q47 47 41 78q-6 25 30.5 101.5t72.5 134.5t42 67q4 6 18.5 69.5t53.5 102.5q39 41 63.5 100t36.5 74q18 18 18 38.5t23 51.5q14 23 44 29t54 -11q16 -10 -4 -47l-72 -147q-4 -10 -14 -27q-68 -141 -83 -163.5t-36 -16.5h-4q-25 6 -29 -6.5 t13 -42.5q14 -27 -20.5 -97.5t-34.5 -85.5q0 -16 -76 -158.5t-99 -166.5q-18 -23 -18 -37t-33 -43q-20 -20 -32.5 -22.5t-43.5 8.5q-43 14 -43 20zM598 877q0 8 58.5 108.5t76.5 120.5q20 25 30.5 17.5t-4 -67t-32.5 -79.5q-18 -23 -18 -55q0 -45 -21 -62q-10 -8 -20 6 q-8 12 -26.5 12.5t-30 -5t-13.5 3.5z" />
<glyph unicode="0" horiz-adv-x="917" d="M21.5 379q-5.5 33 13.5 43q6 4 9 25.5t8 54.5t20 59q27 49 68.5 136t68.5 130t63 76q51 43 52 66q0 27 88 121t141 127q43 27 67.5 31.5t77.5 -1.5q80 -8 123 -37q23 -16 29 -24t-2 -11.5t-18.5 -6.5t-17.5 -13t-3 -29q8 -31 8 -47t43 -39q31 -16 35 -28.5t-2 -59.5 q-10 -74 -90 -221t-141 -205q-37 -33 -37 -49q0 -12 -57.5 -67.5t-118.5 -100.5q-10 -8 -65.5 -42t-140.5 -73.5t-124 -35.5l-51 4l4 69q2 41 -3.5 60.5t-21.5 34.5q-20 20 -25.5 53zM96 524q-6 -8 15.5 -24.5t38.5 -16.5q18 0 6 27q-7 16 -19 20q-23 8 -28 7.5t-13 -13.5z M131 236q0 -20 27 -11q16 7 22 19q8 23 2 26q-6 6 -28.5 -9t-22.5 -25zM148.5 365.5q7.5 -7.5 21.5 2t14 21.5t-12 12t-21.5 -14t-2 -21.5zM199 655.5q0 -14.5 7 -17.5t15 3t8 15.5t-8 14.5t-15 2t-7 -17.5zM209 413.5q-2 -30.5 14 -65.5q18 -41 45 -56.5t51 -2.5 q27 14 130.5 126.5t128.5 151.5q18 31 64 152t69 139q20 18 22 31.5t-10 58.5q-20 82 -92 139t-105 -2q0 -2 -43 -69.5t-91 -144t-95 -168t-57 -142.5q-29 -117 -31 -147.5zM743 1184.5q-7 -13.5 5 -19.5q8 -6 15 -1t7 13.5t-6 14.5q-14 6 -21 -7.5zM765 1030.5 q-13 -16.5 19 -59.5q23 -29 32 -31t24.5 14.5t13.5 24.5t-29 33q-31 31 -39 33t-21 -14.5zM872 1116q0 14 7 14q8 0 14 -16q6 -12 -6 -12q-15 0 -15 14z" />
<glyph unicode="1" horiz-adv-x="946" d="M20 -137q0 16 30 35.5t122 66.5q84 41 100.5 56.5t20.5 50.5q4 70 21.5 137t29.5 74q20 8 21 57q0 45 19 94t42 58q20 8 20 55q0 37 14.5 55.5t20.5 46.5q6 31 31 53.5t27 51.5q2 37 48 133t99 178q27 39 19 47q-6 4 -155 -73.5t-222 -125.5q-29 -18 -37 -6q-4 4 6 14.5 t49 36t102.5 62.5t176.5 104q172 100 213 101q27 2 31.5 -5.5t-1.5 -37.5q-8 -35 -66.5 -168t-58.5 -135q-6 -23 -27.5 -20t-27.5 -5q-4 -6 0 -9t12 -3q33 0 17 -33q-6 -14 -23 -29q-28 -26 -28 -57q0 -25 -48.5 -134.5t-48.5 -125.5q0 -14 -6 -27.5t-21.5 -54.5t-31.5 -102 q-25 -90 -47 -125q-20 -31 -22.5 -57.5t14.5 -35.5q18 -6 186 17q274 39 283 28q2 -2 0 -8q-6 -20 -81 -64t-102 -44q-29 0 -39 -10q-16 -16 -378 -82q-104 -18 -158.5 -27.5t-89.5 -13.5t-45.5 -2t-10.5 8z" />
<glyph unicode="2" horiz-adv-x="985" d="M27 -29q29 37 172 146q168 127 327.5 272t216.5 227q14 18 28.5 45t22 43.5t16.5 28.5t20.5 11t25.5 -15q33 -33 -16 -106q-25 -35 -161 -164t-224 -201q-49 -39 -41 -51t18 -4q18 10 151.5 20t145.5 0q16 -14 64 0q53 16 57 -4q2 -10 -21 -26q-80 -51 -165.5 -75 t-284.5 -48q-82 -8 -127 -21.5t-111 -48.5q-150 -76 -114 -29zM324 1056.5q0 12.5 68.5 43.5t115.5 41q88 16 213 13t125 -24q0 -8 -21 -34q-12 -18 -47 -23.5t-168 -5.5q-199 -2 -242.5 -12.5t-43.5 2zM878.5 850q-4.5 14 2.5 43q8 51 14 61.5t43 10.5q25 0 27 -3.5 t-9 -17.5q-8 -8 -12 -15t-12 -21.5t-14 -28.5q-12 -27 -23.5 -35t-16 6z" />
<glyph unicode="3" horiz-adv-x="874" d="M23 170q4 14 18 4q12 -6 51 27q29 25 63.5 30t69.5 1.5t117 20t190 79.5q96 47 137.5 99t18.5 93q-35 66 -230.5 73t-336.5 -52q-25 -8 -25 8q0 14 33 36.5t133 76.5q131 70 185.5 106.5t115.5 99.5q53 55 68.5 79t13.5 48q-4 23 -15.5 34t-41.5 24q-37 12 -63.5 9 t-106.5 -30q-133 -45 -123 -24q16 29 164 88q78 33 133 45q53 10 69.5 10t47.5 -10q18 -8 24 -15.5t4 -15.5t1 -26.5t14 -38.5q14 -31 12 -43.5t-27 -44.5q-27 -33 -107.5 -103t-135.5 -104q-41 -27 -36 -37t56 -4q61 8 123 0q43 -8 54 -16.5t18 -45.5q14 -84 61 -84 q25 0 53 -35l31 -32l-94 -78q-92 -78 -285 -172q-209 -102 -301 -128t-137 9q-23 16 -14 39z" />
<glyph unicode="4" horiz-adv-x="989" d="M25 289q-14 16 32 90q37 57 70 110.5t44 72t27.5 40t39.5 45.5q39 41 49 80t41 64t32.5 44t-5.5 29t16 31q20 19 20 29q0 39 88 125q84 82 96 51q8 -18 -20 -82q-27 -59 -46.5 -85t-27.5 -52q-6 -29 -62.5 -106t-56.5 -95q0 -27 -67 -137q-80 -129 -62 -137q6 -4 23 2 q31 8 106 22q92 18 138.5 31.5t74 38t34.5 44t27.5 75t47.5 106.5q23 41 23 59q0 20 48 105.5t72 105.5q20 20 42 11t46 2q25 12 31 2q10 -18 -13.5 -72.5t-55.5 -89.5q-45 -47 -46 -66q0 -12 -10 -25.5t-13 -19.5t5 -22q16 -16 8 -56.5t-24.5 -79t-32.5 -75.5t-16 -45 q0 -16 -27 -33q-27 -16 -19.5 -80.5t-7.5 -73.5q-14 -10 -14 -53q-2 -43 -39 -138t-57 -108q-102 -53 -140 -53q-25 0 -24.5 7t14.5 20q8 10 13.5 16t12.5 17.5t10 22.5t3 24q0 27 -3 28.5t-17 -16.5q-23 -29 -31 -14q-6 10 8 34q16 27 16 63t19 58q20 25 35.5 82t8.5 77.5 t-50 16.5t-213 -43q-201 -47 -221 -24zM514 222.5q0 -13.5 14.5 -13.5t14.5 13.5t-14.5 13.5t-14.5 -13.5zM940 1081.5q0 20.5 14.5 20.5t14.5 -20.5t-14.5 -20.5t-14.5 20.5z" />
<glyph unicode="5" horiz-adv-x="1040" d="M20 124q0 9 19 30q27 29 41 14q16 -16 25.5 -12t9.5 26q0 37 39 23q23 -6 43 -31q25 -25 52 -32t38 10q6 12 90 22q115 12 208 70.5t93 115.5q0 18 27.5 41t31.5 52q2 27 15.5 35t33 12t31.5 18q29 35 37 -6q16 -63 -41 -152q-23 -37 -55 -65q-33 -29 -171 -105.5 t-159 -76.5q-23 0 -29 -11q-10 -16 -96 -32.5t-158 -18.5q-63 0 -79.5 5t-31 32t-14.5 36zM197 629q-31 20 5 121.5t107 191.5q27 35 32 49.5t-3 30.5q-18 27 -11 36t66 38q59 33 228.5 68.5t216.5 29.5q35 -6 65.5 7t44 20.5t53.5 -15.5q16 -12 18.5 -19t-9.5 -20 q-20 -27 -135 -53.5t-185 -30.5q-113 -8 -192.5 -41.5t-79.5 -74.5q0 -10 -30 -69.5t-56.5 -114t-20.5 -60.5q8 -8 60 8q84 29 195.5 20.5t142.5 -42.5q10 -14 -0.5 -33t-25.5 -34t-17 -35.5t26 -37.5q16 -10 23.5 -30.5t3.5 -38t-21 -17.5q-20 0 -77 64q-63 70 -113.5 92.5 t-126.5 13.5q-53 -4 -100.5 -13t-55.5 -12t-28 1zM605 661.5q7 -12.5 20 -12.5q12 1 12 21q0 16 -9.5 20t-21.5 -8q-8 -8 -1 -20.5z" />
<glyph unicode="6" horiz-adv-x="892" d="M24.5 245q-14.5 36 16.5 60q20 16 8 40t-5 75t26 65q18 14 18 35q0 27 49 127.5t66 106.5q22 8 22 28q0 14 28 55.5t28 53.5q0 23 114.5 131t206.5 172q66 43 62 18q-2 -6 -51.5 -64t-115 -139t-96.5 -128q-55 -80 -67 -80t-12 -36t-15 -65q-18 -33 -37.5 -119.5 t-21.5 -142.5q-2 -66 16 -65q10 0 15 37q2 8 15 34.5t46 70.5t76 89t110.5 93t141.5 79q82 35 102 12q4 -6 -2 -16t7 -16t26.5 -13.5t7.5 -23.5q-10 -23 -12 -121q-2 -66 -8.5 -88.5t-28.5 -38.5l-33 -29l31 -8q31 -8 27.5 -28.5t-44.5 -77.5q-61 -90 -214.5 -184.5 t-252.5 -104.5q-51 -6 -69.5 1t-67.5 52q-41 37 -51 52.5t0 25.5q37 39 -8 39q-39 0 -53.5 36zM143 277.5q0 -13.5 13.5 -13.5t13.5 13.5t-13.5 13.5t-13.5 -13.5zM170 153.5q0 -14.5 14.5 -14.5t14.5 14.5t-14.5 14.5t-14.5 -14.5zM272 88q14 -27 35 -6q9 9 17 27 q10 29 -1.5 36t-35.5 -10q-27 -20 -15 -47zM272.5 274.5q-12.5 -30.5 20.5 -67.5q53 -68 156 -45q43 8 139 103t100 132q2 31 16.5 50.5t22.5 48t2 88.5q-8 82 -16 94t-47 12q-31 0 -71 -34.5t-74 -68.5t-52 -34t-22.5 -11.5t-6.5 -64.5q-2 -27 -8 -34t-25.5 -6t-23.5 -5 t0 -24q6 -25 -18.5 -47.5t-52 -39t-40 -47zM715 1241q6 12 19.5 12t13 -13t-20.5 -13q-23 0 -12 14zM839 620.5q-7 12.5 1 20.5q12 12 22 8t10 -20q0 -20 -12 -21q-14 0 -21 12.5z" />
<glyph unicode="7" horiz-adv-x="942" d="M19.5 143.5q3.5 24.5 17.5 35.5t29.5 24.5t15.5 25.5t110.5 133.5t110.5 133.5t68.5 99t68.5 97q0 20 156 203.5t158 200.5q2 8 -68 8h-147.5t-89.5 12q-18 14 -26.5 -5t-64.5 -28l-110 -16q-57 -8 -57.5 13.5t59.5 47.5q45 18 176 43t227 31q102 8 185.5 -1t83.5 -30 q0 -18 -88.5 -128.5t-110.5 -118.5q-35 -14 -35 -39q0 -18 -30.5 -64.5t-127.5 -175.5l-337 -446q-55 -72 -55.5 -84.5t-33.5 -40.5l-32 -31l-31 43q-25 33 -21.5 57.5z" />
<glyph unicode="8" horiz-adv-x="1024" d="M21.5 226.5q-5.5 15.5 9.5 29.5q6 6 9 26.5t9 47t44 84t108 131.5q78 80 45 88q-8 2 -19 2q-25 0 -57 35q-18 20 -19 29.5t8 10.5t16 11t1 31q-8 33 19.5 79t109.5 134q127 139 283 227q104 59 104 20q0 -14 -10 -14q-27 0 -153 -128t-160 -212q-14 -33 -13.5 -45 t13.5 -25q14 -14 29.5 -14t56.5 10q63 16 152 60.5t100 64.5q12 20 34 115q14 68 14.5 85t-14.5 34q-20 23 -14 39t35 16q20 0 39.5 9.5t32 17.5t24.5 7t25 -15q16 -23 16 -55t23 -32q43 0 -17 -94q-57 -88 -141 -153q-47 -37 -178 -114t-170 -124q-76 -94 -120 -169 t-54.5 -117t-10.5 -73.5t9.5 -47t6.5 -29.5t-22 -29q-33 -23 -15.5 -33t39 8.5t48.5 2.5q18 -12 103 -6t165 24q53 12 111.5 49t77.5 70q16 29 34.5 49.5t29.5 27.5t18.5 16t5.5 19.5t-15 32.5q-18 31 -14 44.5t35 13.5q25 0 24.5 13t-32.5 13q-31 0 -40 10.5t5 26.5 q16 20 6 41t-35 12q-20 -6 -58 24t-65.5 61.5t-27.5 35.5q0 14 47 40t71 26q27 0 45.5 -26.5t55.5 -20.5q39 8 48.5 -7.5t-13.5 -15.5q-16 0 -28.5 -20.5t-27.5 -20.5q-47 0 0 -59q20 -25 35.5 -29t27 4t30 11.5t45.5 -7.5q33 -14 41 -60t-9.5 -83t-50.5 -29q-25 6 -28 -1 t14 -38q14 -27 -6 -59q-18 -29 -135 -107.5t-216 -126.5q-92 -47 -198.5 -75.5t-134.5 -14.5q-25 14 -52.5 -2t-60.5 -2q-29 14 -37 59.5t-13 86.5t-30 47q-18 6 -23.5 21.5zM901 495.5q4 -8.5 19 -1.5q20 6 20 18t-10 13t-21 -9q-12 -12 -8 -20.5z" />
<glyph unicode="9" horiz-adv-x="778" d="M35 705q-43 37 30.5 188t186.5 260q53 53 112.5 86t105.5 42t84 11t58 -2l21 -4q0 -23 -57.5 -48.5t-104.5 -25.5q-68 0 -111 -35.5t-43 -48.5q0 -18 -31.5 -56t-45.5 -38q-37 0 -4 -53q10 -8 7 -27.5t-10.5 -33t-18.5 -51.5t-15 -83q-6 -51 -3 -71.5t19 -38.5 q25 -27 41 -23t70 49q82 70 144 161t101 169t52 92q6 10 3 37t11 35q20 16 37.5 -4.5t36.5 -5.5q20 16 33.5 4t13.5 -47q0 -37 -82 -261.5t-125 -306.5q-10 -16 -14.5 -45.5t-20.5 -52.5q-20 -27 -20 -69q-2 -53 -20.5 -128t-35.5 -94q-23 -25 -16 -41q4 -16 -36 -51 t-73 -43t-47 10.5t6 40.5q14 18 5 37q-8 10 -8.5 58.5t13 110t44.5 87.5q25 23 26.5 31t-16.5 20q-16 12 -14 27.5t26 79.5q35 88 28 94t-44 -16q-55 -37 -134 -72t-98 -31q-24 4 -24 33q0 23 -10.5 41.5t-10.5 46.5q0 39 -22 56zM92 772q2 -4 4 -6q14 -8 28.5 0.5 t14.5 26.5q0 35 -28 14q-27 -18 -19 -35z" />
<glyph unicode=":" horiz-adv-x="409" d="M25 90q8 49 59 83t75.5 33t45.5 -40q14 -29 14 -39t-14 -27q-20 -25 -90 -57q-61 -29 -81 -18.5t-9 65.5zM211 672q-50 53 20 112q49 43 70 43q18 0 53 -15t35 -24q0 -31 -80 -83t-98 -33z" />
<glyph unicode=";" horiz-adv-x="440" d="M20 -197q2 10 25 33q39 41 33 78q-8 37 5 83t30 46q23 0 37 22.5t0 38.5q-15 19 -5 27q14 16 45 9t39 -27q10 -29 25 -31q12 -4 6 -53t-22.5 -81t-44 -56.5t-89.5 -59.5q-90 -51 -84 -29zM215 668v8q9 78 107 135q45 25 61 25t33 -25q31 -49 -97 -133q-106 -70 -104 -10z " />
<glyph unicode="&#x3c;" horiz-adv-x="925" d="M23.5 636q5.5 28 24 44t75.5 45q35 18 253 112.5t406 204.5q115 68 121 56q2 -2 2 -8q0 -25 -175 -124.5t-374 -185.5q-117 -51 -131 -64.5t31 -47.5q37 -29 42 -52.5t-26 -31.5q-27 -6 -26.5 -32t32 -27t54.5 24q18 23 62 21.5t71 -23.5q23 -18 63.5 -35.5t53.5 -15.5 q23 6 49 -7.5t26 -31.5t9.5 -19.5t25 7t32.5 10.5t36 -11q39 -33 12 -106q-20 -59 -55 -57q-16 0 -31 18q-14 16 -47 12t-49 15q-16 20 -55 20q-29 0 -54.5 20.5t-62.5 20.5q-39 0 -84 42t-74 42q-33 0 -94.5 26.5t-108.5 63.5q-27 20 -33 33.5t-0.5 41.5z" />
<glyph unicode="=" horiz-adv-x="1110" d="M23 454.5q2 4.5 30 16.5q10 4 17.5 6t20.5 8.5t26 12.5q47 25 317 49t395 16q45 -4 70 -1t32 6t12 7.5t11 4.5q20 0 78 -16.5t58 -22.5q0 -4 -36 -19.5t-76 -25t-65 1.5q-16 8 -22 5t-10 -20q-4 -16 -21.5 -21t-75.5 -5q-39 0 -70.5 -3t-43 -5.5t-21.5 2t-22 16.5 q-20 18 -48 18t-53 -22q-12 -12 -96 -19.5t-185.5 -12.5t-129.5 -9q-49 -8 -76 12q-18 16 -16 20.5zM61 717q0 6 11 20q25 29 203 73t284 46q72 2 113 12q47 12 200.5 8t159.5 -18q2 -6 -12 -18.5t-37 -24.5q-61 -31 -256 -44t-231 -7q-37 4 -39 2t-34 -11.5t-89 -13.5 q-70 -6 -176 -22q-98 -16 -97 -2z" />
<glyph unicode="&#x3e;" horiz-adv-x="970" d="M20 270q-2 8 10.5 17.5t50.5 27t82 36t125 53t158 69.5q104 47 140 57q29 6 68.5 35t39.5 43q0 12 -28 13q-16 0 -23.5 7t-11.5 16t-17.5 22.5t-38.5 21.5q-25 10 -41 25.5t-21 28t-13 21.5t-19 9q-14 0 -34.5 20.5t-34.5 6.5q-10 -8 -14.5 -7t-8.5 6t-23.5 18t-48.5 26 q-57 25 -94 57q-29 25 -31.5 35t13.5 49q10 25 12 46.5t1 29.5t4 12t28 4q39 0 69.5 -21.5t30.5 -47.5q0 -18 8.5 -21.5t38.5 0.5q43 8 53.5 -6t-14.5 -55q-31 -55 2 -64q27 -8 131 4q53 4 62.5 1t3.5 -27q-6 -23 -2 -29t29 -6q49 -2 96 -12.5t55 -20.5q4 -8 -27 -41 q-10 -10 -2 -10q10 -2 28.5 12t33.5 6q10 -10 7 -14t-12.5 -17.5t-9.5 -25.5q0 -18 64 -8q53 8 55 0q0 -4 -8 -23q-6 -10 -11 -16t-14.5 -11.5t-29 -13.5t-48 -19t-80.5 -32.5t-116.5 -49.5t-167 -75t-221.5 -104q-215 -102 -234 -58zM702 653q-16 -18 15 -30q33 -10 33 10 q0 12 -19.5 20.5t-28.5 -0.5z" />
<glyph unicode="?" horiz-adv-x="933" d="M20 111q-6 25 41.5 74t47.5 59t21.5 31.5t45 27.5t35.5 -24q8 -29 34.5 -29t26.5 -19.5t-28.5 -55.5t-44.5 -36q-18 0 -82 -35q-49 -27 -67.5 -25.5t-29.5 32.5zM95 470q1 9 7.5 13t12.5 24.5t6 49.5q0 31 7 44t15.5 14t20.5 9.5t20 26.5q14 31 109.5 79t236.5 97 q104 35 141.5 54.5t67.5 54.5q49 53 76 59q35 8 42 8.5t7 -12.5q0 -51 -220 -158.5t-302 -132.5q-14 -4 -27.5 -30.5t-22.5 -57t-31.5 -58.5t-55.5 -36q-41 -10 -41 -26q0 -23 -22.5 -37.5t-37.5 -1.5q-10 8 -9 17zM139 1006q-39 0 25 43q41 26 100 53q20 10 57 26.5 t49.5 20.5t32 13t33 10.5t27.5 5.5t37.5 3t41 0t60.5 -1q80 0 105.5 -5.5t25.5 -17.5q0 -18 -39 -22.5t-59 12.5q-6 4 -12.5 6t-18.5 0t-26.5 -5t-47 -8t-69.5 -10q-80 -10 -171 -43.5t-114 -60.5q-16 -20 -37 -20zM883 1054.5q0 8.5 7 12.5t15 0q14 -8 6 -20.5t-20 -6.5 q-8 6 -8 14.5z" />
<glyph unicode="@" horiz-adv-x="1482" d="M20 -111v232q2 143 6.5 194.5t16.5 71.5q18 27 19 69t18 54q22 19 22 35q0 14 34 49t34 49t58.5 103.5t117.5 160.5q88 109 270.5 206t253.5 112q82 16 165 14t100 -20q16 -20 47 -15q31 8 37 -6t-5 -65q-8 -41 -6 -54.5t25 -31.5q55 -45 70 -7q12 31 47.5 20t64.5 -54 q37 -55 29 -83t-68 -46q-25 -6 -24 -48q0 -78 63 -36q31 20 39 19t8 -24t-16 -36t-25.5 -18t2.5 -34q18 -37 -2 -87t-86 -134q-66 -80 -132 -133t-173 -110q-66 -33 -93.5 -28t-21.5 48q2 16 -4 22.5t-26 6.5q-37 0 -53.5 14t-12.5 41q6 35 -4 35q-6 0 -135 -64 q-139 -68 -141 -26q0 8 16 21t37 22q2 0 1 11t-13.5 23.5t-38.5 12.5q-39 0 -41 16q0 8 14 16.5t14 41.5q0 27 12.5 42t6.5 39q-8 37 73.5 128.5t176.5 148.5q94 59 145 69.5t105 -20.5q51 -31 75 -25q31 8 31 -14q-2 -27 -41 -112q-39 -88 -57.5 -170t-11 -132.5 t39.5 -50.5q31 0 101.5 104.5t70.5 147.5q0 37 13.5 50.5t36.5 -5.5q12 -10 16 -9t4 13q0 14 -16.5 31.5t-26.5 44.5q-8 27 -3 40t17.5 16t11.5 14.5t-24 34.5q-31 33 -48 81t-3 62q16 16 3 29.5t-38 5.5q-18 -6 -36.5 6t-35 30.5t-50.5 38t-75 23.5q-166 20 -264 -3.5 t-178 -100.5q-115 -111 -192 -269l-68 -137q-23 -43 -37 -81t-19 -51t-16.5 -24.5t-36.5 -21.5q-47 -18 -60 -54t-10 -42.5t36 -6.5q39 0 45 -6q2 -4 -4.5 -64.5t6 -146.5t55.5 -145q29 -37 94.5 -64.5t126.5 -27.5q35 0 153 29.5t175 52.5q63 25 63 2q0 -12 -135 -79 t-180 -75q-23 -6 -73 -19.5t-91 -23.5t-87 -18t-75.5 -6t-40.5 16q-6 10 -13 56t-19 59q-14 18 -11 35q4 18 -24 16q-20 0 -64 -10zM47 -154q0 16 43 15q33 -2 31 -19q0 -8 -10 -16q-18 -14 -41 -7t-23 27zM156 160q6 -6 8 -6q6 0 6 14t-14 14q-18 0 0 -22zM266 -176 q-20 0 0 -21q4 -6 8 -6q7 0 7 13.5t-15 13.5zM693 415.5q3 -14.5 20 -14.5q29 0 95 74t110 150q51 94 56 119.5t-28 39.5q-35 16 -59 17q-18 0 -58.5 -37t-40.5 -51q0 -12 -19 -38t-43 -74t-30 -112q-6 -59 -3 -73.5zM1333 936q-4 -10 4 -18q6 -4 18.5 4t15.5 18t-3 16 q-8 6 -19.5 -2t-15.5 -18z" />
<glyph unicode="A" horiz-adv-x="1196" d="M20 205q0 25 14.5 50.5t39 52t78 93t108.5 146.5q29 41 62.5 81t51 60.5t17.5 26.5q0 8 14.5 25.5t51.5 57.5t69 85q25 31 70 83t71.5 83.5t26.5 44.5q0 20 47 56t76 36q24 0 24 -17q0 -15 -18 -43q-8 -14 -35 -49q-72 -92 -94 -143q-33 -80 -215 -277q-43 -47 -43 -69 q0 -17 25 -19q12 -2 31 2q172 29 237 64q27 16 33 29.5t2 56.5q-2 43 5 59.5t48 48.5q51 44 51 60q0 4 -4 6q-6 2 -18 2q-27 0 -34 12.5t13 26.5q20 18 20.5 35.5t20.5 25.5q23 8 21 37q-2 12 -13 13q-14 0 -26 -23q-23 -39 -25 -4v6q0 58 37 113q10 12 21 20 q33 27 32.5 46.5t24.5 33.5q26 15 45 15q51 0 51 -107q-2 -31 -6 -74q-4 -47 -7 -68.5t-10 -34t-12.5 -12.5t-25 -1t-35.5 -5q-18 -2 10 -37q16 -18 27 -18q20 0 22 -44v-9q0 -37 -16 -53q-8 -10 -9 -16.5t4 -12.5t12 -22.5t11 -34.5q4 -35 48.5 -45.5t86.5 -11.5t42 -12 t-33 -33.5t-49 -22.5q-14 0 -56 -39q-31 -27 -35 -45q-1 -7 -1 -21q0 -23 4 -67q8 -96 32 -187q26 -83 26 -103t-26 -20q-29 0 -28.5 -14t-23 -10t-23.5 -25q0 -25 -18.5 -49.5t-38 -24.5t-19.5 45q0 56 -17 56q-11 0 -28 -21l-25 -32v30q0 33 5 42t20 7q18 -6 18 15 q-2 33 -43 63q-41 31 -41 63.5t-14 41.5q-6 4 -10 36.5t-1 63.5t11 31q12 0 35 33q16 27 14 32.5t-31 18.5q-13 5 -38 5q-50 1 -150 -19q-149 -28 -176 -29q-31 0 -44.5 -14.5t-33.5 -14.5q-16 0 -44 -35t-55.5 -79t-74.5 -87t-101 -53q-31 -6 -37 -2t-6 33zM862 229 q9 -4 18 -4q8 -1 16 3q16 8 17 24q0 8 -7 11t-20.5 0t-25.5 -11q-13 -9 -13 -13q0 -2 15 -10zM879 729q-1 -3 -1 -6q0 -6 7 -6q16 0 16 14t-6 14q-10 0 -16 -16z" />
<glyph unicode="B" horiz-adv-x="1228" d="M20 68q4 20 33 30q29 12 29 38t-6 52q-1 5 -1 10q0 22 23 48q27 29 27 71q0 33 37 129.5t37 120.5q0 10 16 47t42 93.5t38 99.5q8 27 17.5 45t13.5 25.5t7 18t3 26.5q0 25 41 84t41 75q0 29 38 59.5t72 30.5q35 0 69 20.5t69 31.5q42 10 105 10q23 0 48 -1q96 -5 119 -26 q20 -18 44 -20t34 12q10 15 21 15q32 0 81 -107q12 -29 36 -39t36 10q18 29 18 6q2 -23 -16 -59q-59 -115 -385 -254q-51 -23 -63.5 -35t-2 -17t36 -18.5t37.5 -27.5q18 -23 42 -23t69 -22q31 -14 36 -25.5t-1 -40.5q-14 -62 -14 -88q1 -3 1 -7q2 -24 29 -24q31 0 39 15 q12 18 23.5 12t11.5 -33q0 -25 -44 -71t-104 -82q-63 -39 -158.5 -83t-134.5 -53q-47 -10 -61 -20q-23 -16 -129.5 -36.5t-190.5 -24.5q-35 -2 -69.5 -12.5t-51.5 -19.5q-16 -8 -38 -12q-5 -1 -8 -1q-15 0 -23 10q-19 15 -19 31q-1 3 0 6zM143 176q0 -6 3 -6q4 0 14 10 q16 14 9 21.5t-16.5 -2t-9.5 -23.5zM279 242q-9 -17 -9 -29q0 -30 54 -31q51 0 168 29q125 29 235 65q76 25 93.5 36.5t21.5 37.5v8q0 34 -31 79q-35 50 -35 59q0 14 -28 35.5t-48 21.5q-16 0 -42.5 22.5t-47 43t-45 27.5t-37.5 -25q-16 -27 -61 -27q-35 0 -73 -31t-25 -49 q4 -10 -31 -117.5t-59 -154.5zM469 731q2 -2 7 -2q16 1 58 13q58 16 123.5 36.5t79.5 20.5q27 2 113 46t117 70q47 43 47 65q0 20 -29 46q-31 27 -104.5 52.5t-130 37.5t-58.5 12q-16 -6 -48 -6t-56.5 -9t-40.5 -40q-16 -33 -13 -52.5t-8 -51.5q-10 -23 -15 -52.5t-26 -91.5 q-20 -58 -20 -81q0 -10 4 -13zM733 641q4 -6 8 -6q7 0 7 13.5t-15 13.5q-10 0 -10 -5.5t10 -15.5z" />
<glyph unicode="C" horiz-adv-x="1079" d="M20 432q0 38 15 45q12 6 7 43t3 51q6 8 43 98.5t68 135.5q39 57 49 98q6 27 53 79t117.5 110.5t172.5 109t200 66.5q54 8 86 9h15q23 0 39 -2q22 -3 37 -20.5t22 -31t24 -47.5q39 -86 46 -86t21 34q8 29 21 2q2 -5 2 -11q-1 -19 -21 -45q-26 -32 -59 -40 q-14 -4 -24.5 7.5t-15.5 26.5t-12 26.5t-16 5.5q-14 -8 -28 28q-10 27 -15.5 28t-17.5 -15q-12 -18 -20.5 -18.5t-36.5 18.5q-35 23 -119 23q-2 0 -4 1q-81 0 -125 -22q-55 -29 -146.5 -141.5t-91.5 -151.5q0 -25 -27.5 -63t-43.5 -38q-23 0 -39 -22q-10 -12 -8 -22.5 t18 -28.5q19 -20 23 -42q1 -7 1 -20q0 -25 -4 -69q-4 -63 -10 -84t-22 -25q-18 -4 -21.5 -25.5t-23.5 -37.5q-20 -14 -21.5 -20.5t19.5 -26.5q12 -14 28.5 -23.5t27.5 -11.5t18 -6.5t5 -12.5t3.5 -13t15.5 -5q20 0 67 -47q55 -55 101 -57h3q47 0 167 53q237 104 293 104 q18 0 18 -10v-6q-12 -37 -246 -127l-157 -62q-111 -45 -154 -55q-27 -6 -56 -6q-18 0 -36 2q-112 17 -112 43q0 2 1 4q8 12 35 12t27 15q0 10 -16.5 13t-71.5 7q-20 0 -36 31t-5 47q8 12 23.5 8t26.5 -4t5 16q-8 20 -8 38t-41 12q-33 -4 -39 4t16 26q10 8 20.5 31t10.5 40 t-8 19q-8 0 -17.5 -15t-21.5 -7q-17 11 -17 53z" />
<glyph unicode="D" horiz-adv-x="1343" d="M20 88q0 10 13.5 10t15.5 17q0 20 27.5 50t46 30t20.5 17t-14 34q-5 5 -5 16q0 17 14 47q22 49 52 72q20 14 24.5 39.5t18 110.5t46.5 194q12 41 40 45q23 4 29 15.5t-8 19.5t-4 50t37 83q29 41 31 63.5t-21 49.5q-16 16 -7 26t71.5 39t140.5 49.5t129 20.5 q27 0 43 -24.5t8 -55.5q-6 -20 -22.5 -25.5t-77.5 -5.5q-76 0 -100.5 -14t-24.5 -55q0 -61 -55.5 -207t-61.5 -185q-8 -47 -20.5 -69.5t-16.5 -52.5q-12 -63 -34.5 -108.5t-47.5 -53.5q-16 -6 -19 -11.5t2 -8.5t12 -11t7 -20q0 -25 8 -33q2 -2 9 -2q37 0 211 79 q204 93 344 179q125 78 181 138t71 130q13 59 13 85q0 7 -1 11q-4 22 -39 76q-43 63 -74 64q-25 0 -80 24.5t-92 30.5q-31 4 -41 14t-16 41q-3 17 -3 31q0 19 6 33q8 16 22 15q6 0 14 -3q20 -6 54 -6t42 -29q6 -29 23 -29q8 0 8 15q0 14 69 14q49 0 58.5 -4t7.5 -27 q-2 -20 4 -25t37 -1q31 2 36 -3t-1 -36q-1 -6 -1 -13q0 -35 33 -81q25 -35 38.5 -43.5t37.5 -3.5q27 4 32 -2q3 -4 3 -19q0 -12 -2 -31q-4 -45 -29.5 -82.5t-31.5 -56.5q-33 -84 -382.5 -285.5t-471.5 -242.5q-76 -23 -103 -41q-35 -20 -105.5 -44t-119.5 -31q-20 -3 -34 -3 q-19 0 -24 6zM358 623q-6 -9 -6 -16q0 -8 8 -13h3q5 0 10 4q10 10 2 31q-6 10 -17 -6zM410 889q5 -5 13 -5q7 0 17 4q20 9 21 21q0 25 -33 6q-21 -12 -21 -20q0 -3 3 -6zM482 1021q-3 -5 -2 -9q0 -7 7 -11q4 -3 8 -3q5 0 11 4q10 8 10 20t-12 12q-14 0 -22 -13zM1243 1020 q0 14 14.5 14t14.5 -14t-14.5 -14t-14.5 14z" />
<glyph unicode="E" horiz-adv-x="1462" d="M20 139q0 20 19 39q12 12 20.5 27.5t10.5 26t8 18.5t16 8q39 2 39 8q0 4 -14.5 16.5t-15.5 23.5t10 38q10 31 20 36t47 -1q14 -2 25 -2q29 -1 37 15q2 5 2 11q0 20 -27 50q-23 25 -26 39t8 43q8 27 54 91t69 142q8 33 32 33q34 0 34 18q0 9 -9 23q-8 14 0 42.5t43 102.5 q10 18 24 51q39 82 50.5 98.5t40.5 32.5q30 17 55 33q44 32 328 60q164 16 285 16q88 0 153 -8q74 -8 84 -31q-16 -10 -33 -12q-27 0 -50.5 -28t-58.5 -36q-45 -8 -57 -16q-20 -12 -278 -15.5t-306 -31.5q-43 -25 -43 -43q0 -10 -80 -179q-76 -161 -75 -177q0 -6 31 -5 q24 0 65 2q92 6 154 21q29 6 51 6q36 0 53 -16q20 -18 -16 -39q-96 -53 -153.5 -72.5t-137.5 -26.5q-111 -10 -123 -24q-35 -47 -99 -197q-54 -126 -55 -153q0 -5 2 -7q4 -5 27 -5q26 0 77.5 6.5t79.5 6.5q25 0 32 -5q4 -8 14 -7.5t15 6t40 10.5t86 5q113 0 242 9t176 22 q31 9 67 9q21 0 43 -3q62 -8 62 -27q0 -20 -75 -55t-118 -35q-49 0 -75 -21q-18 -12 -144.5 -25t-240.5 -15q-35 0 -45.5 5t-16.5 27q-8 37 -28 35q-18 0 -15 -31q4 -25 -8 -28q-16 -6 -213 -8q-188 0 -188 14q0 12 20.5 24.5t11.5 22.5q-8 12 -20 6q-18 -12 -19 6z" />
<glyph unicode="F" horiz-adv-x="1497" d="M53 31q31 0 34 12t-19 27q-14 6 -15.5 14t8.5 27q18 29 43 34q23 6 26 46v12q0 33 -13 61q-10 23 -7 26t11 14.5t8 27.5q0 27 17.5 80t35 96t17.5 45q0 23 33.5 61.5t60.5 49.5q16 6 22.5 10t4 7t-14.5 9q-27 16 -21.5 53t40.5 76q39 46 39 72l-1 1q0 26 11 56 q4 18 13 23.5t28 1.5q27 -8 31 1t-15 30q-14 12 -2 42.5t24.5 50t-1.5 29.5q-18 6 -18 17q0 20 59 59q51 31 119.5 48.5t197.5 31.5l123 12l59 -71l31 41q22 33 46 36h6q23 0 67 -22q23 -10 51 -5t62 12q14 3 34 3q29 0 70 -6q41 -7 75 -7q14 0 27 1q12 0 14.5 -1t2.5 -9 q0 -18 -105 -74q-86 -45 -152 -51q-20 -2 -59 -2q-92 0 -293 10q-61 2 -107 2q-77 0 -114 -6q-141 -31 -141 -47q0 -4 8 -13q12 -14 34.5 2.5t29.5 12.5q8 -10 -14.5 -58.5t-47 -69t-23.5 -42.5q1 -24 5 -50q1 -3 1 -7q0 -26 -24 -74q-31 -57 -30 -85q0 -14 8 -20q4 -4 12 0 t82 20q74 14 159 26q40 5 69 6q32 0 50 -7q29 -12 28 -26.5t-30 -20.5q-20 -4 -57 -39q-29 -28 -51 -28q-5 0 -10 2q-12 4 -24.5 2t-18 -7.5t-38 -11.5t-81.5 -10q-100 -8 -140.5 -22.5t-40.5 -45.5q0 -23 -19 -57.5t-19 -52.5q-2 -18 -22.5 -64.5t-20.5 -72.5 q0 -25 -26 -65q-20 -32 -21 -52q0 -5 2 -10q1 -5 1 -12q-1 -23 -17 -58q-22 -45 -46 -55q-18 -6 -37.5 -19.5t-30 -20.5t-28.5 -11q-5 -1 -9 -2q-11 0 -20 8q-29 15 -29 27q0 16 33 16z" />
<glyph unicode="G" horiz-adv-x="1218" d="M22 382q-1 21 -1 41q0 86 12 144q25 119 124 293t142 174q20 0 41 49q20 49 137 125t219 109q55 16 82 16t92 -18q88 -27 115 -44.5t23 -47.5v-6q0 -34 39 -62q42 -31 42 -48q0 -8 -10 -13q-8 -4 -28 -2q-25 2 -32 -3.5t-7 -27.5q0 -23 -10.5 -31t-30 -12t-29.5 -12 q-14 -12 -24.5 -3t22.5 33q18 14 21.5 23.5t-7.5 25.5q-12 18 -49 20.5t-57 24.5q-25 27 -47 27q-8 0 -40 13.5t-67 25.5t-80 12t-77 -24q-66 -47 -145 -176t-101 -226q-18 -78 -38 -78t-9 -32q9 -25 9 -92q0 -22 -1 -50q-4 -108 -19 -122q-8 -16 -5 -18.5t12.5 -15 t9.5 -28.5q0 -18 27.5 -40.5t27.5 -43.5q0 -25 76 -100.5t123 -75.5q51 0 107.5 32t86.5 79l90 135q31 45 57.5 90t53.5 80q34 44 34 58q0 2 -1 3q-12 5 -37 5q-15 0 -35 -2q-51 -5 -137 -12q-55 -4 -89 -4q-19 0 -32 1q-18 2 10 27q18 16 31 16q16 0 67 42q46 37 75 37 q4 0 8 -1q4 -6 29.5 -3t40 7t61.5 14t96 21q102 18 139 28q25 4 32 1t7 -19t-19.5 -50t-53 -83t-50.5 -80q-61 -111 -134 -204t-132 -140q-41 -31 -64.5 -46.5t-38 -21.5t-52.5 -22.5t-81 -36.5q-106 -51 -156 -69q-45 -15 -59 -15h-2q-12 2 -34.5 12t-59.5 10 q-35 0 -64.5 20.5t-29.5 43.5q0 18 -14.5 18t-14.5 35q0 20 -8 28.5t-19.5 8.5t-23.5 11.5t-18 37.5q-8 45 -27 66q-18 23 -21 138zM147 635q-3 -5 -3 -9q0 -9 16 -14q31 -4 35 23q0 12 -20.5 12t-27.5 -12zM172 186q-2 -8 -2 -16q0 -11 6 -18q10 -6 21.5 0t17.5 20.5 t0 22.5q-8 14 -22 14t-21 -23zM256 72q-3 -5 -3 -10q0 -11 11 -25q13 -16 23 -16q3 0 6 2q12 7 12 36q0 20 -18.5 25.5t-30.5 -12.5zM872 1196q-1 -4 -1 -8q0 -12 8 -21q18 -16 26 7q4 16 -6 28q-8 7 -14 7q-8 0 -13 -13zM991 1108q4 -6 8 -6q7 0 7 14t-15 14 q-10 0 -10 -5.5t10 -16.5z" />
<glyph unicode="H" horiz-adv-x="1327" d="M20 70q0 12 32 51q36 43 70 103q26 45 26 82q0 12 -3 24q-6 31 14.5 56.5t35 42.5t2.5 34q-12 8 -10.5 16t9 10.5t16.5 20.5t15 47q8 53 39 115.5t53 68.5q14 4 17.5 14.5t-0.5 39.5q-1 5 -1 10q0 45 46 135q115 231 135 234q8 0 8 -29q0 -20 28 -42t28 -38 q0 -20 -35 -118.5t-57.5 -143.5t-10.5 -58q3 -2 15 -2q18 -1 58 5q64 10 164.5 27.5t159.5 21.5q88 8 105.5 21t46.5 91q20 61 51 109l45 69q29 47 67 89.5t56 50.5q18 7 30 7q9 0 15 -5q12 -11 16 -57q1 -8 1 -15q-1 -35 -13 -57q-14 -26 -37 -19q-18 8 -40 -41 q-16 -35 -16.5 -44t18.5 -21q16 -14 17 -24.5t-11 -39.5q-18 -43 -51 -43q-27 0 -30 -12t15 -41q5 -7 5 -22q0 -42 -40 -142q-53 -135 -67 -151q-10 -14 -11.5 -43t-31.5 -74q-35 -51 -35 -82q0 -20 -20.5 -61t-28.5 -80q-12 -66 -74 -185q-6 -12 -20.5 -22t-42 -27.5 t-45.5 -29.5q-31 -22 -40 -22h-2q-6 3 -4 40q2 23 -14 41q-16 17 -24 33q-2 5 -2 14q0 20 12 59q6 14 19.5 55.5t24.5 70t21 36.5q18 16 19 47q0 20 31.5 91t39.5 94q8 27 34 70.5t38 121.5q3 19 -59 31q-30 6 -56 6q-27 0 -49 -6q-45 -14 -134 -25.5t-138 -26t-49 -42.5 q0 -10 -10.5 -36t-38 -99.5t-58.5 -169.5q-16 -55 -26.5 -84t-17.5 -50.5t-20.5 -32t-18.5 -14.5t-28.5 -13t-37.5 -15q-33 -12 -84 -14q-56 -4 -56 14zM250 580.5q0 -13.5 14 -13.5q20 0 0 21q-4 6 -8 6q-6 0 -6 -13.5zM581 1202q-1 5 -1 10q0 11 8 19q5 4 10 4q6 0 12 -5 q12 -9 11 -26q0 -8 -6.5 -13t-14.5 -5q-14 0 -19 16z" />
<glyph unicode="I" horiz-adv-x="1148" d="M20 -18q0 16 66 53t121 49q41 10 46 43t25.5 64.5t38.5 31.5t48 29l30 29l-30 32q-24 26 -24 38q0 13 17 61q12 33 24.5 57.5t20 33.5t12.5 17t5 17q0 12 15.5 20t27.5 20.5t6 36.5q-6 25 13.5 49.5t19.5 53.5q0 43 24.5 84t46.5 35q25 -6 33 9t-14 32q-16 12 -14 23 t26 50q35 55 39 86q1 23 -13 27q-7 2 -32 2t-68 -2q-106 0 -108 14q8 20 118.5 72t188.5 68q83 18 239 19h16q141 0 144 -17q1 -2 1 -4q0 -17 -39 -64q-33 -37 -53.5 -45t-96.5 -10q-156 -6 -156 -45q0 -6 4 -15q4 -7 4 -19q0 -19 -10 -53q-16 -54 -43 -83q-18 -23 -18 -45 q0 -25 -27.5 -77t-43 -58.5t-9.5 -15.5t15.5 -20.5t-11.5 -29.5q-20 -16 -20 -60q0 -35 -19.5 -72.5t-25.5 -72.5q-6 -33 -49.5 -146.5t-47.5 -144.5q-2 -20 25 -16q92 10 236.5 18.5t238.5 9.5h22q74 0 87 -6q0 -16 -46.5 -47.5t-101.5 -52.5q-72 -29 -285 -36t-227 -11 q-41 -12 -293 -31q-58 -5 -85 -5q-10 0 -14 1q-20 2 -20 19z" />
<glyph unicode="J" horiz-adv-x="1388" d="M22 212q5 11 29 21q33 16 33 32q0 12 -21 24q-18 10 -18 18q0 10 37 15q10 2 22 2q31 2 42.5 -7.5t29.5 -46.5q37 -76 68 -95q16 -9 36 -9q21 0 48 10q31 10 148.5 191.5t119.5 216.5q0 27 28.5 79t45.5 58q20 8 12 41q-1 3 -1 7q0 30 41 87q46 66 42 80q-1 3 -1 8 q0 18 19 57q16 37 15.5 47.5t-23.5 26.5q-24 18 -73 18q-6 0 -13 -0.5t-13 -0.5q-51 0 -91 18q-27 14 -43 14q-11 0 -17 -6q-10 -10 -25.5 -14t-27.5 0t-12 12q0 14 18 14q14 0 43 28t41 28q10 0 52 26.5t85 30.5q38 3 95 3q85 0 211 -7q210 -12 237 -27q11 -6 37 -6 q15 0 35 2q53 8 55 -10q0 -8 -22 -18q-20 -8 -21 -29q0 -63 -274 -88q-57 -4 -82 -11.5t-30 -14.5t-13 -26.5t-27 -35.5q-14 -16 -14 -47t-47 -64q-50 -32 -50 -52q0 -11 21 -3q6 2 10 2q10 0 10 -14q0 -12 -8 -35q-10 -35 -49 -119q-25 -53 -24 -59q0 -8 -35 -45t-35 -62 q0 -29 -43 -90t-113 -129q-55 -55 -145 -113.5t-121 -60.5q-25 0 -57 -21q-31 -16 -70 -18h-9q-31 0 -38 12q-10 14 -37 15q-16 0 -20.5 6t2.5 24q10 35 18 37t29 -26q25 -31 41 -20t12 54q-4 27 -12.5 33t-40.5 8q-29 0 -44 6q-10 5 -10 12q0 3 2 6zM637 511 q0 -13 14.5 -13t14.5 13t-14.5 13t-14.5 -13zM666 553q10 0 10 5t-10 15q-4 6 -9 7q-6 0 -6 -12q0 -15 15 -15z" />
<glyph unicode="K" horiz-adv-x="1206" d="M22 7q5 1 13 30q6 23 6 57v17q0 66 25.5 100.5t25.5 79.5q2 41 22.5 71.5t38 55t11.5 55.5q-6 29 13.5 58.5t40 54t18.5 39.5q-1 4 -1 9q1 28 21 81q24 63 39 73q25 12 18 25q-3 4 -3 13q0 22 20 72q26 69 53 95q25 27 34 53.5t10 45t24.5 48t72.5 62.5q32 20 58 22 q3 0 6 1q29 0 28 -22q0 -25 -64 -186q-70 -175 -69 -186q0 -14 -20 -32q-10 -8 -16.5 -35t-5.5 -50.5t10 -23.5q10 0 102 86l152 139q70 63 217 159.5t174 96.5q31 0 49 21q27 33 37 16q4 -4 4 -10q0 -12 -15 -12q-39 0 -301 -218t-262 -251q0 -18 -36.5 -48t-47.5 -59 q-10 -27 -15 -27.5t-17.5 15.5t-21.5 17t-38 -13q-25 -12 -41 -41t-43 -115q-23 -68 -41 -109.5t-26.5 -53t-12.5 -21.5t-4 -26q0 -70 -30 -130q-30 -59 -62 -59h-2q-15 1 -27 1q-57 0 -57 -23q0 -18 -26 -34q-14 -8 -23 -8t-14 7q-3 9 -3 13t2 4zM127 307q2 -14 27 -37 q18 -14 29.5 -16t31.5 8q35 16 35 37q0 14 -17 31q-25 20 -32.5 13t-22 -21.5t-31.5 -8.5q-20 8 -20 -6zM223 442.5q0 -14.5 20.5 -14.5t20.5 14.5t-20.5 14.5t-20.5 -14.5zM402 882.5q0 -14.5 12 -14.5q16 0 22 17q4 10 -8 10q-2 2 -6 2q-20 0 -20 -14.5zM506 508 q-4 8 68 85q66 71 65 90q0 17 3 19q4 2 12 1q7 0 18 -1q23 -4 32 -13t8 -20.5t3 -25.5t16 -22q14 -8 12 -18.5t-8 -22t-12 -20.5t-3 -15t19 -6q20 0 21 -33q0 -18 4 -24.5t14 -2.5q14 6 40 -17.5t40 -65.5q5 -16 5 -36q0 -31 -13 -69q-8 -18 1 -47t25.5 -42.5t41.5 7.5 q8 8 24 9q18 0 46 -12q52 -20 79 -56q39 -52 39 -115v-6q-2 -29 -16 -27q-15 4 -34 4q-22 0 -52 -5q-45 -7 -78 -7h-14q-38 2 -48 37q-8 31 -28 22q-14 -4 -31 8.5t-47.5 46t-44.5 48.5q-16 14 -19.5 33.5t-0.5 33t-2 24.5t-21 15q-23 2 -48.5 49t-43.5 64q-21 17 -21 38 q0 9 4 19q14 32 54 31.5t40 19.5q0 17 -53 29q-24 5 -41 6q-21 0 -31 -8q-16 -14 -24 -2zM680 324q10 -8 23.5 3t13.5 27q0 20 -12 21q-13 1 -23 -21q-6 -12 -5 -21q0 -6 3 -9zM776 143q-2 -8 -2 -14q0 -14 11 -14h1h2q6 0 15 8q8 8 8 16.5t-8 16.5q-7 8 -12 8q-9 0 -15 -21 z" />
<glyph unicode="L" horiz-adv-x="1017" d="M20 94q0 15 31 23q23 6 24 12t-18 31q-14 25 -14 35t14 34q23 35 35 35t12 40t37 58q43 20 43 39q2 14 -30 7q-20 -6 -27.5 -2t-7.5 20q0 18 27.5 51t27.5 55q0 18 28.5 60.5t52.5 78.5t15 40q-12 7 -12 16q0 14 31 33q14 10 35 20q74 41 69 66q0 8 -18 8q-33 0 -38 21.5 t21 56.5q35 45 35 72q0 20 28 62t32 54q8 23 41 37q25 10 40 10q9 0 15 -4q14 -10 12 -53q-2 -33 -15.5 -58.5t-20.5 -38t-1 -20.5q2 -4 2 -7v-8t-2 -11t-5 -15.5t-7 -18.5t-11 -25.5t-14.5 -33t-17.5 -40t-20 -48.5l-142 -329q-31 -74 -49 -103.5t-39 -34.5q-33 -6 -39 -18 t2 -34.5t6 -35.5q-2 -18 15 -20h4q35 0 235 31q113 18 272.5 28.5t203.5 16.5q38 4 56 4q9 0 13 -1q9 -2 9 -12q0 -3 -1 -8q-2 -16 -13 -22t-35.5 -16.5t-49.5 -30.5q-55 -47 -173 -67q-61 -10 -119 -10q-54 0 -105 9q-18 3 -32 3q-29 0 -44 -13q-16 -14 -143 -32.5 t-211 -18.5q-50 0 -50 22z" />
<glyph unicode="M" horiz-adv-x="1531" d="M23 123q-1 3 -1 7q0 6 4 14q7 14 17 38.5t10 50.5q0 33 20.5 61t34 43t3.5 28q-8 10 12 60t53 118.5t43 99.5q10 33 30.5 49.5t27 15.5t-2.5 21q-5 8 -5 22q-1 27 19 77q28 74 58 85q16 8 -4 23q-10 8 -11 19.5t4 23.5t15 38.5t17 53.5q12 53 96 78q29 8 44 -22.5 t36 -30.5q25 0 35 -45q8 -41 -3 -41q-2 0 -6 2q-25 8 -44 -27t-23 -94q-2 -31 -2 -48q0 -13 1 -17q3 -10 25 -5q10 2 19 2q31 1 49 -27q22 -36 27 -124q2 -26 2 -47q1 -18 -1 -32q-4 -30 -8 -35t-6 -14t2 -16q8 -20 -16 -36q-16 -16 -16 -41q0 -15 6 -33q14 -49 28 -53h1 q15 0 105 83q94 87 93 103q0 10 75 103.5t75 99.5q0 8 54 82.5t58 85.5q10 31 118.5 138t178.5 157q112 79 135 79q6 0 6 -5q0 -3 -2 -7q-6 -20 -59 -82q-59 -67 -59 -81q0 -2 2 -3q4 -2 14 -2q23 0 23 13.5t12 13.5q4 -2 2 -23.5t-10.5 -51.5t-18.5 -42q-6 -8 -26.5 -65.5 t-42.5 -100.5q-27 -51 -27 -67q0 -12 -20.5 -34t-20.5 -46q0 -23 -27.5 -81.5t-27.5 -78.5q0 -14 -9.5 -24.5t-19.5 -15.5t-18.5 -21.5t-8.5 -40.5q0 -47 -24 -107q-18 -43 -50 -166t-38 -174q-2 -18 -14.5 -29.5t-24.5 -13.5t-23.5 -9t-11.5 -20q0 -18 -33 -16 q-69 8 -69 70q0 39 -15 53q-12 12 0.5 49t38.5 70q14 16 12 42.5t13 37.5q20 14 20 53q0 29 19.5 63.5t19.5 48.5q2 16 21.5 37t13.5 35q-4 12 15.5 36t19.5 64q0 86 86 201q33 40 33 57q0 5 -4 9q-3 3 -6 2q-16 0 -54 -39q-55 -51 -55 -72q0 -23 -44 -75q-39 -47 -57 -47 q-2 0 -4 1q-18 8 -18 -4t16 -16q2 -1 2 -3q0 -11 -35 -59q-43 -58 -114.5 -142.5t-83.5 -98.5q-31 -39 -45.5 -39t-40.5 -35q-23 -29 -51 -32h-6q-26 0 -66 20q-37 18 -54.5 50t-6.5 58q3 14 -11 42q-13 25 -12 58v9q1 9 1 18q0 33 -13 49q-14 18 0 34t53 20q35 4 39 41 q2 20 -10.5 35.5t-49.5 41.5q-44 31 -63 31q-7 0 -10 -4q-25 -37 -45.5 -114.5t-48.5 -139.5q-18 -37 -28.5 -67.5t-14 -42t-13.5 -27.5t-33 -41q-35 -36 -35 -49q0 -5 5 -6q18 -6 16 -25.5t-22 -30.5q-29 -16 -77 -22t-54 2zM152 326q6 -10 26 -4q29 4 29 18q0 12 -18.5 16 t-28.5 -6t-10 -17q0 -4 2 -7zM322 784q-3 -6 -4 -11q0 -8 8 -17q14 -12 29.5 -4t15.5 28q0 18 -19.5 19.5t-29.5 -15.5zM475 750q-3 -7 -3 -11q0 -5 5 -6q19 3 29 23q4 16 -8 16q-14 0 -23 -22zM550 610q5 -16 19 -16q8 0 14.5 6t6.5 12q0 18 -11.5 27.5t-21.5 -0.5 q-8 -8 -8 -19q0 -5 1 -10zM838 -127q-9 5 -9 12q0 8 11 19q16 16 28 4q14 -14 0 -30q-9 -9 -18 -9q-6 0 -12 4zM926 2q-4 -6 -4 -12t5 -14q9 -14 25 -15q16 0 26.5 18.5t0.5 28.5t-27.5 8t-25.5 -14zM1325 1006q-3 -4 -3 -7q0 -9 17 -16q12 -5 20 -5q13 0 13 13q0 20 -22 27 q-3 1 -5 1q-11 0 -20 -13z" />
<glyph unicode="N" horiz-adv-x="1417" d="M22 110q3 26 27 85q16 43 31.5 73.5t24 42t14.5 29.5t10 47q10 57 41 70q39 16 39 44q0 13 -8 29q-5 10 -5 24q0 17 8 40q15 41 40 55q22 12 22 60q0 39 6.5 49t32.5 14q47 8 45 29q0 12 -22 20q-26 8 -26 24q0 19 40 50q35 25 36 40l3 45t39 79q45 61 69.5 79.5 t55.5 18.5q25 0 29 -8t-5 -49q-8 -47 -4 -49q4 0 23 16q29 27 28 43q0 16 26 31.5t50.5 15.5t37.5 -35t-3 -55q-10 -12 -9 -16t13 -4q23 0 36 -20.5t15 -47.5t8.5 -56.5t20.5 -39.5q23 -20 33 -66q6 -33 1 -39t-36 -6q-45 0 -51 27.5t-31 27.5q-14 0 -14 -15t20.5 -34.5 t38.5 -19.5q31 0 75 -23.5t44 -42.5q0 -23 29 -69l28 -48l27 33q27 33 26 56q0 20 20.5 37.5t33.5 9.5q14 -8 55 18q31 18 12 31q-18 12 -41 6q-25 -8 -24 18q0 27 26 50q29 24 29 63q0 37 60.5 117t76.5 125q10 27 16.5 27.5t20.5 -13.5q27 -27 51 -43q18 -12 15.5 -33.5 t-39.5 -122.5q-51 -137 -51 -155q0 -23 -24 -85.5t-40 -80.5q-20 -25 -12 -39q2 -3 2 -9q0 -23 -22 -101q-28 -98 -46 -122q-12 -16 -23.5 -94t-21.5 -108q-8 -20 13.5 -20.5t23.5 -6.5q2 -14 -51 -29q-43 -10 -47 -28q0 -6 10 -8q6 -2 14 0q16 0 17 -9q-2 -20 -41 -41 q-33 -16 -58 -6q-12 4 -50 6t-64 27q-33 31 -33 96q0 51 -21.5 95.5t-35 69t-2.5 40.5q12 16 -1.5 33.5t-38 48.5t-28.5 74q-6 37 -27.5 84t-36 78.5t-8.5 40.5q8 14 -22 49q-16 18 6 18q10 0 19.5 -7t14.5 -15.5t8 -14.5t7 -4t8 17q12 31 -1 48t-44 17q-29 0 -36 9t-13 46 q-10 55 -22 56q-12 0 -41 -54.5t-29 -76.5q0 -18 -25.5 -95t-62.5 -176.5t-74 -195t-63 -162.5l-27 -68q-8 -25 -27.5 -17.5t-27.5 -19.5q-6 -18 -45 -43.5t-62 -25.5q-10 0 -24 57q-6 27 -6 48q0 8 1 15zM162 201q6 -6 8 -6q6 0 6 14t-14 14q-9 0 -9 -5.5t9 -16.5zM178 340 q4 -8 19 -8q8 0 14 6t6 14q0 33 -22 19q-20 -12 -20 -23q0 -4 3 -8zM566 929q7 -7 21.5 2t14.5 21.5t-12 12.5q-12 -1 -22 -15q-5 -8 -5 -14q0 -4 3 -7zM649 958.5q0 -8.5 8 -14.5q8 -4 15.5 1t7.5 12.5t-8 13.5q-8 4 -15.5 0t-7.5 -12.5zM680 649q-1 -2 -1 -3q0 -6 17 -13 q18 -8 32 -8q22 0 36 18q18 25 18 35t-22 27q-12 10 -21.5 1.5t-13.5 -21.5t-10 -24.5t-15 -5.5q-14 6 -20 -6zM731 467q-1 -5 -1 -9q0 -11 7 -18q7 -8 12 -8q7 0 13 14t-6 27q-16 16 -25 -6zM800 628q-1 -3 -1 -5q0 -3 3 -9q5 -8 14 -8t14.5 7.5t2 14.5t-16.5 7t-16 -7z M891 463q4 -6 8 -6q6 0 6 13t-14 13q-10 0 -10 -5t10 -15zM1057 616q-1 -16 21 -26q12 -6 22 -6q8 0 14 4q16 12 -16 35q-39 23 -41 -7zM1366 1225q4 10 11 10q5 0 12 -6q9 -9 9 -22q0 -10 -5 -21q-5 -10 -12 -10q-5 0 -11 6q-9 9 -9 22q0 9 5 21z" />
<glyph unicode="O" horiz-adv-x="1255" d="M22 330q-2 19 -2 33q0 27 9 32q10 6 8 22.5t-4 40t12 58.5q10 25 24.5 69t24.5 69.5t23 31.5q20 6 20 39q0 57 133 239.5t187 200.5q27 8 82 41t126.5 65t151.5 44q123 20 203 20q38 -1 66 -5q88 -14 118 -70q12 -25 12.5 -34t-16.5 -20q-14 -12 -13 -16t23 -10 q26 -7 26 -18q0 -6 -7 -13q-16 -14 -55 -19q-37 -6 -46.5 -13t-11.5 -36q-4 -43 23 -51q33 -8 34 -64v-5q1 -53 -19 -111q-20 -62 -45.5 -111t-37.5 -49t-12 -33q0 -51 -126 -197.5t-271 -260.5q-66 -53 -207.5 -124t-198.5 -81q-25 -4 -36 -4q-5 0 -7 1q-6 3 -2 21 q8 23 -12.5 35t-85.5 23q-45 8 -43 22t49 19q41 4 51 20t-4 55q-12 33 -62.5 45.5t-60.5 24.5q-15 18 -21 74zM145 18q6 12 21 13q12 0 13 -11.5t-9 -21.5q-4 -4 -9 -4t-11 4q-8 5 -8 11q0 4 3 9zM178 453q0 -8 11.5 -18.5t25.5 -16.5q27 -12 50.5 -57.5t23.5 -81.5 q0 -27 45 -76q31 -31 49 -40q15 -7 44 -7h13q61 0 105 37q39 35 109.5 117.5t86.5 113.5q16 33 33 33q25 0 44.5 29.5t19.5 62.5q0 35 34.5 83t34.5 62t12.5 29.5t6.5 48.5q-1 7 -1 15q1 29 17 71q22 53 21 78q1 32 21 66q12 20 11 34q0 11 -6 19q-16 18 -8 32 q14 20 -17.5 50t-80.5 43q-61 16 -111 22q-42 5 -74 5h-10q-35 -1 -66.5 -16t-51 -27.5t-44 -46.5t-38 -56.5t-42.5 -71.5l-12 -24q-66 -117 -121 -183q-39 -47 -44 -61t12 -39q16 -23 16 -39t-14 -70q-8 -25 -11.5 -45t-4.5 -32.5t0 -22.5t2 -15t0 -9.5t-4 -5.5t-9 -1 q-20 0 -29 15q-10 14 -29.5 13t-19.5 -17z" />
<glyph unicode="P" horiz-adv-x="1093" d="M22 -56q2 14 3.5 28t5.5 40.5t6 53.5q0 27 18.5 69.5t18.5 91.5q0 51 20.5 78t20.5 55q0 37 37.5 122t58.5 91q19 7 37 65q13 41 12 65q0 11 -2 18q-3 8 -3 18q1 23 13 57q18 50 43 76q27 27 27 85q0 35 -10 83q-6 29 3 41.5t54 40.5q139 87 180 87q17 0 17 -15 q0 -29 42 -30h10q37 0 76 6q12 2 23 3q28 0 47 -14q11 -9 30 -9q17 0 42 7q20 5 36 5t28 -5q24 -10 20 -39q-4 -23 29 -26q68 -10 95 -66q13 -26 13 -54q0 -31 -16 -65q-23 -43 -23 -63q0 -45 -130 -147.5t-240 -145.5q-41 -16 -82 -32.5t-55.5 -21.5t-28 -9.5t-25.5 -4.5 q-43 0 -99 -45q-46 -38 -46 -63q0 -5 2 -10q4 -12 -11.5 -48t-13.5 -43q1 -3 1 -6q0 -25 -24 -104q-28 -90 -46 -115q-23 -27 -93.5 -67.5t-76.5 -47.5q-8 -14 -29 -14q-9 0 -13 5q-2 4 -3 11q1 4 1 8zM442 575q1 -1 6 -1q24 0 130 31q128 38 192 67q25 12 39 30.5t25 55.5 q27 80 35 130q5 30 5 46q0 12 -2 18q-6 14 -8 31.5t2 32.5q6 27 -21.5 39t-49.5 -6q-18 -17 -43 -5q-31 16 -107 20q-18 1 -34 2q-47 0 -60 -11q-14 -10 -19.5 -49t-18.5 -123t-40 -170q-33 -100 -33 -129q0 -6 2 -9zM934 814q4 -10 14.5 -10.5t22.5 9.5q9 9 9 17t-9 14 q-6 4 -11 4q-10 0 -20 -12q-7 -9 -7 -16q0 -3 1 -6z" />
<glyph unicode="Q" horiz-adv-x="1101" d="M24 440q7 27 16 48.5t15 29.5q12 12 13 43q0 23 32 68q26 38 26 52q0 3 -1 5t-1 5q0 18 22 61q26 49 60 97t71.5 99t41.5 58q29 47 119 106q23 14 77 52t73.5 48.5t59.5 23.5t85 15h10q62 0 131 -44q74 -48 113 -117q31 -57 42 -129q4 -27 4 -48q0 -34 -11 -51 q-18 -25 -8 -47q20 -39 21 -76t-15 -47q-14 -8 -15 -16t6 -15.5t12 -23.5t1 -37q-10 -37 -40 -85t-52 -60q-27 -14 -27 -29.5t-51 -69.5q-35 -35 -40 -48t9 -36q12 -27 9 -43t-2 -30.5t16 -22.5q14 -12 14 -18t-16 -23q-25 -25 -15 -33q8 -6 29 13q14 10 21.5 9t19.5 -15 q11 -16 11 -52q0 -31 36 -59q29 -29 48 -29q8 0 14 5q22 18 49 -21q25 -33 25 -64q0 -5 -1 -10q-2 -23 -13 -31t-21.5 0.5t-10.5 28.5q0 39 -14 39q-18 0 -27 -51q-10 -55 -22 -62q-1 -1 -2 -1q-8 0 -37 22q-33 26 -63.5 48t-41.5 7q-18 -31 -28 -4q-4 10 -2 29 q2 25 -4.5 30t-32.5 3h-4q-30 0 -64 25q-37 26 -37 50q0 12 6.5 15.5t11.5 0.5t15 -10q6 -4 10.5 -6t9.5 -5t8 -2t5 3q8 6 -10.5 25.5t-45 36t-40.5 16.5q-23 0 -45 33q-18 29 -38 31t-42.5 -11.5t-77.5 -37t-123 -38.5q-61 -12 -83.5 -12t-55.5 17l-45 22l51 43 q40 36 40 49q0 4 -5 6q-2 1 -5 1q-18 0 -57 -29q-37 -29 -55 -29q-10 0 -14 10q-4 14 12 41q18 30 18 95q0 38 -6 88q-2 10 -28 10q-31 0 -42 19q-6 12 -6 26q0 9 4 20zM129 594q-2 -4 -2 -8q0 -10 16 -15q31 -4 33 23q0 12 -19.5 12t-27.5 -12zM240 440q-1 -8 -1 -17 q0 -31 15 -76q20 -58 49 -89q51 -53 143 -53h7q77 2 77 44q0 7 -2 13q-10 29 11.5 43t50.5 0t49 2q15 13 15 22q0 18 -56 25q-8 0 -16 2q-55 4 -68.5 11.5t-0.5 15.5t30.5 23.5t17.5 29.5q0 20 14.5 20.5t14.5 -26.5q0 -37 22 -37q20 0 27 21q2 8 0 14q-10 14 6.5 34.5 t36.5 20.5q6 0 9 -1t3 -5t-4 -11t-12 -20q-14 -25 -15 -31.5t15 -15.5q25 -14 33 -10t8 31q2 29 37 35q35 4 60.5 31.5t27.5 64.5q2 23 11 43t19.5 33.5t17.5 26.5q6 10 6 17q0 8 -13 15q-16 6 -16.5 9t8 6.5t11.5 11.5t-9 24t-10.5 40t-18.5 50q-25 31 -26 62t20 49 q23 10 8.5 32.5t-2.5 47.5q16 31 -4 29q-16 0 -49 -23q-25 -16 -37.5 -10t-61.5 57q-61 68 -98 72h-5q-36 0 -85 -49q-63 -70 -129 -180.5t-66 -151.5q0 -12 -3 -20.5t-8 -15.5t-15 -42t-21 -94zM631 168q0 -14 20.5 -14t20.5 14t-20.5 14t-20.5 -14zM733 182q6 -8 20.5 -12 t28 -1t13.5 11q0 10 -27 35q-18 18 -24.5 18t-10.5 -14q-4 -11 -4 -20.5t4 -16.5zM795 43q0 -35 20 -35q7 0 16 4q31 14 29 37v6q-14 20 -39.5 16.5t-25.5 -28.5zM864 875.5q0 -21.5 13.5 -21.5t13.5 21.5t-13.5 21.5t-13.5 -21.5z" />
<glyph unicode="R" horiz-adv-x="1118" d="M47 207q33 94 33 110q0 10 35 88t35 111q0 39 15 66.5t34 19.5q12 -4 19 -1t5 13.5t-12 20.5q-20 16 -21 41q0 16 10.5 42.5t25 45t20.5 14.5q12 -6 12 7.5t-12 21.5q-14 8 -5 27.5t27 19.5q20 0 62 41l41 41l-64 86l31 27q33 25 27.5 33t-52.5 8q-57 0 -51 16 q10 33 156 65q16 2 33 7q87 16 195 18h26q86 0 119 -12q12 -6 129 -23q59 -10 59 -25v-1q0 -8 -12 -19q-20 -16 -19.5 -34.5t23.5 -32.5q16 -8 16 -14.5t-18 -24.5q-20 -25 -15.5 -42.5t33.5 -17.5q20 0 48 42t42 42q16 0 18.5 -12t-12.5 -23q-14 -8 -14 -43 q0 -43 -68.5 -102t-150.5 -104t-151.5 -83t-69.5 -44q0 -12 241 -172q152 -100 194 -134q34 -27 34 -41q0 -3 -2 -6q-14 -20 -43 -20q-14 0 -17.5 -3t-0.5 -8.5t8.5 -12.5t8.5 -14t-2.5 -16.5t-1 -20.5t10.5 -24.5t12 -24.5t2 -19.5t-20 -8.5q-8 0 -32 48.5t-32 48.5 q-16 0 -22 -16.5t6 -28.5q18 -18 11 -27.5t-44 -9.5q-41 0 -53.5 15t-14.5 71q-2 41 -25.5 56t-49.5 -9q-25 -25 -40.5 -23t-21.5 14.5t-19.5 23.5t-29.5 7q-18 -4 -31.5 9.5t-31 39t-33.5 39.5q-14 12 -13 17.5t17 17.5q18 12 18 18.5t-16 18.5q-26 20 -58 -1 q-13 -8 -24 -8q-18 0 -35 19q-16 18 -24.5 40t-15.5 32t-31 12q-23 2 -38.5 -9t-39.5 -50q-38 -55 -38 -71q0 -2 1 -3q1 -2 1 -6q0 -20 -22 -91q-28 -87 -43 -106q-14 -18 -41 -18q-20 0 -42 -28t-40 -44q-8 -7 -23 -8q-17 0 -44 10q-17 9 -17 23q0 13 25 86zM176 283 q4 -4 8 -4q6 0 6 13t-14 13q-10 0 -10 -5.5t10 -16.5zM377 608q8 -10 46 6.5t80 39t56 22.5q16 0 96 37l133 61q31 14 75 48t71 64q19 21 19 29q0 4 -3 5q-14 4 -29.5 35.5t-35.5 61.5t-47 34q-29 2 -33 17t5 31.5t8 30t-21 13.5q-40 0 -40 -25q0 -9 5 -20q8 -25 -31 -23 q-31 2 -78 21q-31 10 -59.5 11t-34.5 -1t-18 8q-11 17 -21 17q-19 0 -39 -52q-18 -49 -28 -129q-8 -55 -33 -140q-25 -84 -39 -138q-8 -31 -8 -48q0 -12 4 -16zM506 545q4 -6 8 -6q6 0 6 14t-14 14q-10 0 -10 -5.5t10 -16.5zM623 481q-1 -3 -1 -5q0 -5 7 -5q14 0 14 13.5 t-6 13.5q-8 0 -14 -17zM676 321.5q0 -6.5 14 -10.5q10 -4 21.5 -5t18.5 5t-7 27q-12 16 -18.5 17t-18.5 -15q-10 -12 -10 -18.5zM758 406q-2 -9 -2 -15q0 -15 10 -16q8 0 18 10q16 16 0 33q-8 8 -13 8q-9 0 -13 -20zM812 172q-3 4 -3 8q0 7 12 15q27 16 29 2q0 -6 -10 -19 q-11 -10 -19 -10q-5 0 -9 4zM883 295q3 -2 7 -2q7 0 15 8q9 8 9 14.5t-9 10.5q-3 1 -6 1q-10 0 -16 -10q-5 -8 -5 -13.5t5 -8.5z" />
<glyph unicode="S" horiz-adv-x="894" d="M26 242q-1 1 -1 3q0 5 18 13q25 8 74 35l47 24l88 -47q55 -31 94 -41t117 -16q36 -5 64 -5q21 0 36 3q37 6 45 11t27.5 19.5t48.5 26.5q25 8 19.5 42t-19.5 66t-27 48q-33 45 -32 55q0 14 -82 106.5t-76 104.5q10 14 -1 27.5t-24 3.5q-8 -9 -40 -9q-11 0 -25 1 q-55 4 -55 32q0 18 -18.5 39t-12.5 37q4 10 -5.5 15.5t-37.5 5.5q-41 0 -63.5 25.5t-0.5 47.5q16 14 -14 37q-23 16 -24 23.5t16 28.5q23 27 22 38q0 14 56.5 71.5t72.5 57.5q8 0 56.5 31t103.5 63.5t122 50.5q28 7 53 7q33 0 59 -14q23 -12 23 -51q0 -7 -1 -15 q-4 -49 -19.5 -53t-37.5 39q-18 31 -23 33q-4 2 -6 -11q0 -4 -2 -8q-5 -27 -19 -30q-2 -1 -5 -1q-17 0 -58 13q-14 4 -30 4q-33 -1 -75 -19q-60 -26 -96 -71q-32 -47 -32 -93q0 -28 11 -54q30 -72 130 -122q33 -16 49 -34.5t17.5 -30.5t7.5 -18.5t22 -4.5q7 1 15 1 q61 0 122 -58l50 -47l-23 -43q-14 -29 -32.5 -41t-31 -15.5t-12.5 -7.5q0 -12 28 -28.5t44 -16.5q12 -2 18.5 -7t10.5 -12t19 -20.5t42 -25.5q31 -14 41 -26.5t10 -31.5q0 -33 -16 -38q-6 -4 -11.5 1t-5.5 13q0 12 -40.5 41t-49.5 20q-4 -4 -3 -16q0 -21 10 -68 q11 -55 28 -55q10 0 21 18q10 16 24 0q10 -10 -8 -33.5t-57 -52t-88 -53.5q-63 -33 -99 -57q-63 -43 -194 -61q-45 -6 -76 -7q-59 0 -68 23q-6 18 -59 10q-15 -2 -29 -2q-66 0 -106 39q-18 18 -18 35q0 16 16 30q14 14 5.5 30t-14.5 22zM70 240q-2 -1 -2 -4q0 -9 22 -35 q28 -33 43 -33q12 0 8 29q-4 23 -31.5 39t-39.5 4zM225 928q0 -18 21 -19q14 0 24 18.5t2 28.5q-14 14 -30.5 4t-16.5 -32zM343 832q7 -14 18.5 -19.5t21.5 0.5q16 18 -12 41q-18 16 -27 2q-4 -5 -4 -12q0 -5 3 -12zM584 652q4 -16 20 -17q8 0 14.5 6t6.5 12 q0 18 -11.5 27.5t-21.5 -0.5q-9 -9 -9 -21q0 -3 1 -7zM744 551q-2 2 -1 8q0 7 2 21q6 35 12.5 38t33.5 -12q33 -16 24 -41q-4 -12 -22 -10q-12 2 -28.5 -3t-20.5 -1zM803 1124q0 8 4 12.5t8 0.5q23 -12 25 12q0 18 -15 35q-22 25 -12 35q7 7 14 7q18 0 35 -44q12 -27 12 -39 t-18 -31q-20 -20 -36.5 -16t-16.5 28zM823 514q-1 3 -1 5q0 5 7 5q15 0 15 -15q0 -11 -6 -11q-8 0 -15 16z" />
<glyph unicode="T" horiz-adv-x="1171" d="M23 1071q-3 3 -3 8q0 9 14 23q21 22 43.5 25t59.5 23.5t74 20.5q27 0 82 14.5t131 20.5q34 2 56 2t31 -2q19 -4 44 -30q25 -27 42 -25t17 33q1 24 7 30t138 10q84 2 167 2q48 0 95 -1q130 -2 130 -6q0 -14 -25.5 -38t-40.5 -24q-12 0 -26.5 -9t-54 -20.5t-113.5 -17.5 q-117 -8 -137 -27q-14 -14 -24.5 -77.5t-43.5 -92.5q-27 -23 -29 -29.5t17 -21.5q20 -16 21 -33.5t-9 -31t-19.5 -34t-2.5 -38.5q4 -16 -4.5 -51t-23.5 -87t-22 -83q-41 -186 -63 -213q-20 -25 -6 -33q16 -10 7 -54t-34 -71q-23 -27 -18 -43q9 -24 -12 -24h-5q-20 0 -43 18 q-37 29 -68.5 29t-37.5 14t8 53q10 25 19.5 32t23.5 3q18 -6 21.5 2t-3.5 33q-2 12 -4 19t-4 24.5t-3 30t-2 35t1 40.5q2 35 20.5 49.5t46 26.5t44.5 35q12 18 7 35.5t-17.5 29t-20.5 36t-2 57.5q10 57 34.5 97t44 67.5t19.5 64.5q2 31 12.5 80t15.5 70.5t-1 37.5 q-8 8 -109 8q-25 -1 -57 -1q-156 -2 -274 -15q-78 -9 -110 -9q-18 0 -21 3zM504 373.5q0 -13.5 14 -13.5q10 0 10 5t-10 16q-4 6 -8 6q-6 0 -6 -13.5z" />
<glyph unicode="U" horiz-adv-x="1202" d="M20 360.5q0 18.5 11.5 70.5t13.5 122q2 82 29.5 133t31 92t25 76t21.5 66q0 35 26.5 66.5t26.5 39.5q-4 33 5 55.5t36 51.5q33 32 53 32q14 0 20 -16q10 -27 15 -117v-9q0 -45 -18 -84q-20 -42 -44 -42q-20 0 -57 -34t-37 -50q0 -12 34 -12q34 1 42 -13q2 -4 2 -14 q0 -27 -16 -100q-29 -127 -39 -129q-4 -2 -25 16q-29 27 -57 21q-31 -4 -34 -10.5t5 -39.5q4 -20 14.5 -27t30.5 -7q29 0 46.5 -22.5t22.5 -50.5t11 -71t12 -65q6 -25 -29.5 -39t-23.5 -29q8 -14 41 -6q35 8 55 -8q23 -19 61 -19q27 0 63 10q85 24 171 89l109 80 q51 37 78.5 82t31.5 76.5t14.5 59t32.5 38.5q27 14 44.5 46.5t3.5 43.5q-10 8 -2 18t19 28.5t5 33.5q-6 20 10 30q16 12 33 44t17 55q0 29 11 34t38 -14q29 -16 51 -10t36.5 18.5t14.5 16.5q0 14 -35 32.5t-51 12.5q-25 -10 -20 8q4 14 32 57q61 88 113 90q31 0 31 -39 q0 -35 -17.5 -90t-34.5 -75q-20 -25 -12 -37q10 -14 -11.5 -50t-48 -85.5t-28.5 -83.5q0 -27 -7 -49.5t-17.5 -45t-25.5 -85t-30 -152.5q-10 -63 -32 -64q-23 0 -21 -12q2 -10 14 -10q4 2 8.5 -2t7.5 -15.5t6 -30t5 -48.5l6 -66l-41 10q-35 6 -33 -4q0 -12 58 -41 q31 -14 39 -25.5t-5.5 -21.5t-50.5 -22q-33 -9 -51 -9q-10 0 -16 2q-18 7 -33.5 17t-32.5 4q-4 -1 -8 -1q-22 0 -52 48q-24 39 -23 64q0 12 5 20q10 16 5 27.5t-1.5 21.5t23.5 14q12 4 19.5 11.5t5.5 13.5q-4 10 2 27.5t9 25.5t-15 19q-2 1 -5 1q-26 0 -129 -69 q-162 -109 -290 -157q-70 -26 -110 -26q-33 0 -46 17q-16 20 -45 12q-25 -8 -37 13.5t10 34.5q20 14 9 33.5t-35 13.5q-16 -4 -22.5 -1t-6.5 19q0 18 10 33.5t11 22t-19 38.5q-23 29 -23 47.5zM86 366q-1 -1 -1 -3t2 -4q3 -3 13 -7q25 -8 33 0q14 14 -10 25q-14 4 -27 -2 q-8 -5 -10 -9zM164 678q0 -16 16 -23q10 -4 10 9q3 2 3 6q0 20 -14.5 20t-14.5 -12zM219 181.5q0 -13.5 13.5 -13.5t13.5 13.5t-13.5 13.5t-13.5 -13.5zM825 78q2 -6 9 -15q16 -24 27 -24q5 0 9 4q12 12 -4 33.5t-37 21.5q-9 0 -9 -7q0 -4 5 -13zM858 399q-5 -7 -5 -12 q-1 -5 5 -9q4 -3 8 -3q7 0 15 8q16 18 -2 25q-14 6 -21 -9zM1108 1085q9 -9 18 -9q4 0 8 2q12 6 13 22v6q0 11 -6 16q-3 2 -5 2q-8 0 -20 -14q-10 -12 -11 -18q0 -4 3 -7z" />
<glyph unicode="V" horiz-adv-x="946" d="M26 255q-6 17 -6 30q0 17 9 28q14 16 2 25q-10 6 -10 29q0 15 5 41q13 60 40 94q18 23 27 58.5t5 62t-21.5 26.5t-20.5 12.5t11.5 20.5t11.5 40t-20 44q-20 16 -4.5 46t41.5 30q18 0 24.5 9t9.5 42t7 51q8 33 2 54.5t1 54t38 65.5q27 29 37 34t25 -7q14 -10 18 -49 t4 -158q0 -188 -14 -201q-12 -12 -4 -34.5t14 -43t-16 -51.5q-18 -20 -17.5 -28.5t21.5 -30.5q32 -34 32 -103q0 -62 -30 -69q-16 -4 -21.5 -12.5t4 -16.5t27.5 -10q31 -6 51 24q78 111 118 185t81 137q31 45 69.5 111.5t64.5 105.5t52 60q41 37 43 51q0 27 30 58.5t52 31.5 q35 -1 35 26q0 35 37 50q10 3 17 3q18 0 18 -22q0 -4 -2 -8q-4 -25 -54 -113l-69 -120q-12 -25 -51 -47.5t-59.5 -37t-2.5 -26.5q20 -10 10 -42t-30.5 -62.5t-41 -62.5t-20.5 -40q0 -29 -301 -494q-39 -63 -73.5 -96t-53 -37t-37 -11t-30.5 -21q-14 -17 -34 -19h-7 q-15 0 -21 10t20.5 48t26.5 53q0 20 43 73q34 44 34 58q0 6 -8 6h-1q-14 0 -47 -25q-35 -27 -54.5 -26.5t-19.5 28.5q0 18 31 27l30 8l-36 21q-28 14 -42 52zM145 481q-2 -3 -2 -5q0 -5 9 -5q14 0 14 13.5t-6 13.5q-8 0 -15 -17zM193 1055q5 -3 9 -3q6 0 11 8q3 5 3 9 q0 7 -9 12q-4 2 -7 2q-4 0 -8 -3q-7 -5 -8 -11q0 -8 9 -14z" />
<glyph unicode="W" horiz-adv-x="1325" d="M22 449q5 4 12 23.5t1 47.5q-2 9 -2 17q0 28 22 49q27 23 29 41t-18 26q-20 6 -22.5 18.5t8.5 27t24.5 29.5t25 32.5t11.5 32.5q0 18 7 31.5t12 18.5t0 15t-26 31q-18 18 -24 30.5t-5 20.5t8 29.5t11 44.5q8 63 56 141q2 6 11 -2t19.5 -13t26.5 11q16 20 35.5 19 t19.5 -21q0 -23 -24 -62q-16 -27 -16.5 -37t18.5 -28q12 -14 18 -31.5t2 -29t-18 -11.5q-23 0 -28 -16t13 -37q16 -18 20.5 -42t-9.5 -32q-9 -5 -9 -113v-22q2 -143 5.5 -180t13.5 -37q8 0 52 60.5t44 72.5q0 4 48 74t48 80q0 8 17.5 30.5l42 54t37.5 52.5q20 41 95 138 t107 128q38 36 61 36q3 0 7 -1q25 -6 27 -57q2 -39 -7.5 -56.5t-5.5 -40.5q1 -4 1 -8q0 -30 -42 -61q-8 -6 -4 -6h15q25 4 26.5 -14.5t-4.5 -43.5q0 -16 -10 -25.5t-20.5 -12.5t-16.5 -9t-2 -20q14 -33 16 -56.5t-3 -43t-14 -69.5t-15 -114q-3 -40 -3 -67q0 -50 10 -50 q4 0 9 7q10 12 27 51q16 43 53 100t53 94q23 51 37 51t14 21q0 16 48.5 95t54.5 98.5t34.5 51t28.5 44.5q0 17 86 85q79 63 94 62h2q7 -4 7 -17q0 -12 -6 -30q-13 -39 -37 -65q-27 -29 -41.5 -85.5t-28.5 -66.5q-16 -14 -129 -239.5t-113 -245.5q0 -10 -34.5 -56.5 t-65.5 -89.5t-21 -53q6 -6 6 -16q0 -17 -17 -44q-27 -44 -75 -75q-73 -45 -109 -59q-27 -11 -39 -11q-4 0 -7 1q-10 5 -28.5 16.5t-47.5 11.5q-8 0 -13 1t-8.5 3t-5.5 4t-3 8t-1 11.5t1 16.5t1 21.5t1 27.5t1 36q0 90 9.5 122.5t37.5 45.5q20 8 26.5 20.5t6.5 44.5 q0 55 -20 72q-16 14 -13 54t23 61q25 27 -10 41q-12 4 -31.5 -20.5t-53.5 -81t-59 -89.5q-23 -31 -57.5 -91t-67.5 -97q-43 -49 -51 -94q-8 -39 -49 -67t-90 -28q-49 -2 -55 18q-1 3 -1 7q0 20 31 53q39 41 33 47q-4 2 -18 6q-29 8 -30 17.5t24 36.5q37 40 37 76q0 6 -1 12 q-2 14 -14 14q-8 0 -14 -6t-6 -14q0 -20 -23 -21q-14 0 -14 12.5t4 30t-8 33.5q-10 17 -10 24q0 2 1 3zM512 156q10 -25 15 -26h1q6 0 25 17q27 25 27 29t-25 17q-27 15 -40 3q-7 -6 -7 -19q0 -9 4 -21zM621 766q4 -2 7 -2q4 0 8 3q7 5 7 12t-8 14q-7 5 -15 -1q-7 -5 -8 -12 q0 -8 9 -14zM751 900q3 -3 8 -2q7 0 15 7q8 8 8 15t-10 10q-4 2 -8 2q-8 0 -12 -10q-5 -7 -5 -13q0 -5 4 -9z" />
<glyph unicode="X" horiz-adv-x="1136" d="M135 248q135 133 225 244q57 68 75 98.5t18 60.5q0 53 -13 60q-12 8 -11 39.5t15 46.5q12 18 5 26t-20 29.5t-13 46.5t-10.5 40t-12.5 21.5t15 45.5q18 35 20 71.5t-12 46.5q-16 8 -14.5 20.5t18.5 12.5q16 0 34 -33.5t41 -19.5t58 2q23 -8 32 -23.5t13 -54.5 q4 -25 4 -46q0 -10 -1 -20q-3 -30 -4 -34t11 -25q14 -18 7 -39.5t-27 -21.5q-10 0 -16.5 -6.5t-6.5 -14.5q0 -18 6.5 -18t44.5 16q33 16 170.5 168t163.5 166q35 23 74 55q41 32 70 32q6 0 12 -1q10 -4 10 -12q0 -20 -103.5 -147.5t-199.5 -223.5q-55 -53 -84 -90t-35 -64.5 t-3 -44t14.5 -47t17.5 -55.5q8 -43 -12 -43q-31 0 -17 -18q8 -10 29 -21q35 -16 57 -51q10 -14 13.5 -22.5t2.5 -19.5t-4.5 -17.5t-12.5 -26t-17 -33.5q-2 -8 18.5 -20.5t41 -16.5t28.5 2q12 18 33 -20q14 -23 14 -41q0 -25 -10 -25t-37 25q-18 16 -24.5 16t-20.5 -20 q-18 -27 -19 -51q0 -14 -10 -28q-10 -12 -20 -16q-3 -1 -6 -1q-7 0 -13 6q-4 12 0 22t11.5 17.5t4.5 11.5t-24 4q-33 0 -49 -16t-39 26q-12 27 -12 51q0 16 -8.5 21.5t-32.5 1.5q-35 -4 -33 12q4 18 55 45q33 16 40 28.5t5 41.5t-9 36t-38 7q-37 0 -51 -10.5t-25 -10.5 q-14 0 -18 10.5t2 24t21 19.5q23 14 6 30q-3 3 -7 3q-18 0 -62 -43q-54 -54 -148.5 -145t-178.5 -140q-97 -56 -120 -56q-7 0 -7 5q0 23 115 139zM501 1205q-1 1 -1 2q0 2 4 2q6 1 24 3q37 0 37 -12q0 -18 -14.5 -20t-34.5 12q-12 10 -15 13zM512 937q0 -13 13.5 -13 t13.5 13t-13.5 13t-13.5 -13z" />
<glyph unicode="Y" horiz-adv-x="1011" d="M20 -37q-2 16 27 43q37 33 37 53q0 14 61.5 70.5t61.5 85.5q0 31 62.5 114t62.5 91q0 12 38 63.5t52 59.5q13 8 13 25q0 33 -52 100q-31 37 -42 81t-15 70.5t-21 30.5l-41 14q-8 2 -9 8.5t5 14.5t14.5 17t18.5 21.5t16 20.5q2 4 2 14q0 21 -9 66q-13 66 -28 84 q-6 18 -5 26.5t12.5 32t13.5 33.5q6 18 39 18q1 1 2 1q32 0 53 -19q23 -18 47 -124q14 -64 14 -90q0 -17 -6 -19q-14 -6 -16 -13.5t6 -16.5t27 -17q23 -10 43 -41t31.5 -50.5t36 -12.5t63.5 59q109 147 216 247q90 85 126 85q7 0 12 -3q3 -2 3 -8q0 -18 -30 -78 q-40 -78 -104 -166l-131 -192q-49 -74 -76.5 -104.5t-44.5 -61.5l-92 -170q-88 -160 -210 -292t-181 -132q-20 0 -57 -27q-25 -20 -37 -20q-7 0 -9 8zM455 750q2 -45 14 -45t12 14q0 10 21 39q17 23 17 35q0 4 -2 7q-7 13 -25 14h-3q-15 0 -24 -9q-10 -9 -10 -43v-12z" />
<glyph unicode="Z" horiz-adv-x="1181" d="M41 106q31 37 31 56q0 10 66.5 82.5t162.5 176t141 159.5l197 229q68 78 121 144.5t79.5 107.5t18.5 47q-8 5 -41 5q-25 0 -63 -3q-90 -6 -105 -14q-16 -10 -154.5 -15.5t-144.5 -11.5q-14 -12 -52 -7t-44 23q-8 20 17.5 40t56.5 16t49 18q14 18 57.5 25.5t270.5 25.5 q129 12 237 15l109 2l-9 -41q-8 -39 -52 -103.5t-127 -169t-115 -151.5q-39 -53 -55.5 -72.5t-21.5 -22.5t-31 -29t-71 -79q-53 -63 -150 -165t-151 -162q-48 -54 -48 -64q0 -1 1 -2q2 -2 13 -2q24 0 96 12q81 15 103 15q6 0 7 -1t5 -1q19 1 101 15q74 13 103 13q10 0 15 -2 q25 -8 49 6q29 14 233 36q128 14 179 14q30 0 34 -5q2 -1 2 -3q0 -4 -11 -13q-15 -12 -44 -28.5t-63.5 -34t-70.5 -33t-65 -23.5q-66 -18 -323.5 -45t-298.5 -35q-45 -8 -54 4q-4 8 -35 8q-16 0 -38 -2q-66 -6 -84 -20q-7 -6 -15 -6q-11 0 -24 12q-14 12 -14 21t20 38z" />
<glyph unicode="[" />
<glyph unicode="\" horiz-adv-x="475" d="M23 969q8 39 27 64.5t13 43.5q-4 14 2.5 44t15.5 53.5t13 23.5q10 0 48 -21.5t38 -27.5q0 -4 -27.5 3t-27.5 -15.5t29 -16.5q25 6 39 -15.5t24 -82.5q8 -55 -8 -57q-10 -2 -19 28q-6 25 -24 27q-10 -2 -12 -14q0 -10 11 -35t23.5 -42.5t16.5 -13.5q6 6 28 -28 q66 -100 43 -172q-6 -25 -26 -41q-23 -18 -25 -26.5t7.5 -11.5t20.5 -12.5t11 -23.5q0 -18 8 -20q14 -2 23 28q6 25 20.5 27t22.5 -23t-29 -53l-37 -31l33 -22q33 -23 51 -23q16 0 38 -44t36 -107q10 -51 7 -66.5t-29 -42.5q-37 -39 -22 -48t15 13q0 27 23 15q12 -8 25 -27 q8 -25 -0.5 -33t-28 -26.5t-21.5 -38.5q-6 -27 -39 -27q-23 0 -29.5 9.5t-8.5 41.5q-4 51 -25 52q-20 0 -13 -28t-14 -28q-18 0 -18 14.5t3 28t-13 21.5q-25 10 -19 29.5t35 31.5q35 12 29 29q-25 57 -38 75.5t-30 14.5q-18 -6 -37.5 21.5t-23.5 63.5t12 69q16 27 0 66.5 t-49 55.5q-70 35 -51 148q6 45 -2.5 73.5t-21.5 40t-21.5 33t-1.5 56.5zM114.5 894.5q-10.5 -9.5 18.5 -48.5q12 -16 18.5 -17.5t17.5 10t10 19t-17 19.5q-37 27 -47.5 17.5zM254 424q2 -6 6 -12q12 -12 28.5 -4t16.5 28q0 35 -28.5 24t-22.5 -36zM329 275.5 q13 -15.5 38 -7.5q20 8 14 18.5t-15.5 22t15.5 29.5q35 25 4 43q-29 14 -45 -6q-6 -10 0 -29.5t-8 -34.5q-16 -20 -3 -35.5z" />
<glyph unicode="]" />
<glyph unicode="a" horiz-adv-x="974" d="M21 204q2 40 20 75q13 24 13 41q0 14 -8 24q-18 22 7 43q18 18 20.5 35.5t-1.5 31t7 44t44 73.5q47 62 47 91q0 25 35 74.5t35 58.5q0 29 154 121q148 88 187 89q2 0 3 -1q25 -4 25 -43q-1 -31 -19 -59q-20 -30 -53 -31t-62 7q-7 2 -14 3q-23 0 -49 -21 q-25 -23 -82.5 -137.5t-77.5 -181.5q-16 -57 -42 -57.5t-26 -13.5t21 -13q17 0 17 -30q0 -36 -25 -116q-8 -27 -5 -46t23 -56q35 -68 59 -76q4 -1 9 -1q23 0 57 34q45 43 61 43q33 0 172 274q63 127 67 157q1 4 1 9q0 37 -27 148q-6 31 9.5 30.5t7.5 28.5q-1 4 -1 9 q0 26 38 61q31 27 43 31t34 -9q20 -10 37 -33.5t26 -40t31.5 -16.5t57.5 25q31 23 45 23q12 0 12 -17q0 -23 -26 -86q-115 -272 -149 -379t-36 -197q-1 -17 -1 -31q0 -38 4 -56q6 -24 26 -44q31 -34 31 -50q0 -9 -8 -13q-4 -2 -11 -2q-20 0 -26 -21q-6 -14 -66.5 -31.5 t-107.5 -17.5q-39 0 -74 32t-45 75q0 6 -2 14q-11 45 -21 48h-2q-13 0 -61 -24q-51 -25 -92 -43q-119 -51 -127 -53q-9 -3 -17 -3q-26 0 -26 34q0 16 -8.5 29.5t-14.5 18.5t-3 13.5t22 20.5q31 20 30 33q0 10 -17 12t-37.5 -5t-27.5 -20q-10 -16 -14 -16t-14 12 q-12 22 -12 55v10zM543 29.5q0 -13.5 12 -13.5q16 0 23 17q-2 10 -15 10q-20 0 -20 -13.5zM639 36.5q0 -20.5 13.5 -20.5t13.5 20.5t-13.5 20.5t-13.5 -20.5zM721 911q0 -16 16 -22q9 2 11 14q0 21 -14 21q-13 0 -13 -13z" />
<glyph unicode="b" horiz-adv-x="948" d="M28 48q-8 6 -7 18q0 14 10 36q29 63 96.5 251t85.5 219.5t34.5 89t35.5 88.5q14 23 26.5 47t17.5 34.5t14 19.5t19 13q20 8 47 36t7 48q-6 6 -6 18q0 28 34 94q48 92 103 142q55 47 77 47h3q20 -2 24 -19.5t-4 -41t-18.5 -47t-19.5 -45t-9 -29.5q0 -16 -72 -174 q-61 -135 -61 -168q0 -5 2 -8q6 -10 48 12.5t113.5 55t131.5 38.5q33 3 54 3q16 0 24 -2q18 -5 49 -36q40 -40 40 -66q0 -18 -20 -30q-16 -8 -16 -12t16 -18q20 -17 20 -43q-1 -23 -15 -53q-32 -64 -140 -177q-70 -74 -214 -175t-200 -116l-110 -30q-70 -20 -142 -27 q-19 -2 -34 -2q-33 0 -44 9zM373 198q10 0 22 1h8q41 4 65 19t71 65q137 147 174 254q12 39 12 55t-12 43q-20 41 -51 49l-52 14q-4 1 -9 1q-30 0 -69 -44q-45 -51 -90 -147q-112 -238 -112 -283q-1 -27 43 -27zM569 1184.5q0 -13.5 21.5 -13.5t21.5 13.5t-21.5 13.5 t-21.5 -13.5zM721 718q0 -13 20.5 -13t20.5 13t-20.5 13t-20.5 -13zM776 573q5 -2 11 -2q13 0 26 13t13 20q0 5 -7 8q-4 2 -8 2q-12 0 -27 -12q-18 -11 -18 -19q0 -6 10 -10z" />
<glyph unicode="c" horiz-adv-x="811" d="M24 177q-4 13 -4 23q0 20 15 29q10 6 7 29t13 51q20 29 21 66q0 31 21.5 54.5t21.5 41.5q0 29 45 112t67 95q25 14 25 39q0 47 165 154.5t208 107.5q10 0 23.5 -13.5t21.5 -29.5q14 -31 14 -40t-16 -22q-20 -14 -29.5 -17t-12.5 1t-18.5 11.5t-38.5 7.5h-2 q-43 0 -115 -74q-74 -76 -81 -127q-10 -72 -54.5 -179.5t-76.5 -142.5q-35 -35 -40 -63.5t8 -43t28.5 -30.5t15.5 -29q0 -14 57 -61q41 -31 63 -37q13 -4 41 -4q19 0 46 2q61 4 92 17.5t107 66.5q103 69 124 69q4 0 5 -3q0 -12 -68 -76t-80 -64q-8 0 -57 -28.5t-121 -67.5 t-127 -57q-60 -17 -76 -19q-1 0 -2 -1q-15 0 -31 16q-27 25 -53 8q-31 -16 -53 -16q-33 0 -47 36q-8 23 -5 34t23 28l31 26l-51 47q-38 35 -50 73zM578 924q-3 -5 -2 -8q0 -7 8 -12q14 -7 21 5.5t-6 20.5q-5 3 -9 3q-7 -1 -12 -9zM702 788q-2 5 -2 9q0 15 22 30q28 19 19 31 q-4 6 -1 8q2 1 4 1q4 0 8 -1q8 -2 19 -30.5t17 -62.5q2 -12 3 -24q1 -19 -7 -37q-12 -28 -43 -28q-18 0 -23 14.5t-6 43t-10 46.5z" />
<glyph unicode="d" horiz-adv-x="1140" d="M20 200q0 48 15 56q12 10 12 63q0 33 5 44.5t22 11.5q31 0 37 18q2 8 -9 15q-10 8 -4 51t19 57q12 12 47 -10q41 -27 47 -12q4 10 -31 34q-23 16 -28 36t7.5 43.5t29 46t43 58.5t42.5 66q14 25 155.5 98.5t176.5 73.5q51 0 23 -28q-8 -8 -25 -21q-35 -20 -35 -47 q0 -14 -11 -18.5t-50 -1.5q-43 0 -70.5 -17.5t-40 -43t-37 -76t-51.5 -89.5q-14 -20 -23.5 -48t-21.5 -76t-24 -87q-23 -63 -26 -151q0 -14 -1 -26q0 -67 14 -95q14 -27 52 -25q23 0 48 21.5t79 81.5q160 186 225 340q29 66 31 83t-15 33q-15 17 -15 39q0 12 4 24 q12 36 -1 50q-14 12 6.5 32.5t37.5 33t-3 24.5q-20 8 -21.5 26.5t19.5 35.5q14 12 25.5 8t35.5 -29l39 -37l51 78q50 80 64 113q20 57 73.5 109.5t95.5 77t52 24.5t11 -28v-6q0 -27 -8 -65q-9 -43 -26 -84q-25 -66 -79 -177t-94 -200.5t-74 -189.5q-31 -92 -30 -172v-14 q3 -86 50 -152q12 -18 20.5 -52t6.5 -59.5t-15 -25.5q-8 0 -38.5 -17.5t-58 -30.5t-34.5 -5q-8 12 12.5 12t37.5 21q10 14 5 26t-32 39l-43 43l-33 -31q-31 -29 -49 -28q-20 0 -51 25.5t-45 54.5l-17 32l-37 -34q-23 -20 -45 -35t-77.5 -44.5t-94.5 -52.5 q-84 -47 -113.5 -53t-52.5 21q-16 20 -16 16t4 -16q8 -23 -4 -31q-5 -3 -9 -3q-14 0 -22 32q-4 18 -8 67q-6 70 -16 80q-15 15 -15 69zM153 330q9 -12 27 -11q8 0 13.5 6.5t5.5 14.5q-1 14 -17 20q-5 2 -9 1q-11 0 -19 -9q-5 -5 -5 -11t4 -11zM707 215q6 -6 8 -6q6 0 6 13.5 t-14 13.5q-9 0 -9 -5.5t9 -15.5z" />
<glyph unicode="e" horiz-adv-x="972" d="M23 306q6 81 28 130q80 170 200 316.5t253 236.5q45 31 131 71t121 46q34 6 50 5h10q13 -3 30 -30q18 -27 37.5 -32t27.5 16q8 18 29 -8q13 -17 13 -32q0 -7 -4 -15q-5 -9 -5 -47q0 -27 -75 -108q-81 -87 -179 -161l-194 -149q-51 -37 -109.5 -74t-86.5 -53.5t-47.5 -43 t-18.5 -63.5q0 -96 54 -143q38 -32 92 -32q25 0 54 7q40 10 58 10q16 0 16 -7q0 -4 -4 -9q-29 -39 -166 -96q-92 -39 -134 -39q-24 0 -32 12q-10 16 -28 -6q-12 -16 -28 -16q-6 0 -14 3q-26 9 -43 42q-10 23 -6 35t14.5 13t13.5 11t-9 29q-16 29 -16.5 48.5t-20.5 35.5 q-13 12 -13 61q0 16 1 36zM274 483q0 -16 13 -16q17 0 55 25q16 8 33 22q86 66 195.5 160t150.5 135q33 33 79 102.5t46 85.5q0 11 -76 15q-20 1 -38 1q-51 0 -89 -7q-43 -8 -109.5 -58.5t-78.5 -85.5q-12 -29 -58 -96q-29 -43 -76 -150.5t-47 -132.5z" />
<glyph unicode="f" horiz-adv-x="929" d="M25 -188q-3 6 -3 12q0 8 6 16q11 15 40 27q33 12 32.5 45t18.5 49q18 14 12 44t-29 46q-12 10 -13 20.5t5 18.5t12.5 24.5t6.5 32.5q0 14 13 34t30.5 56.5t25.5 94.5q10 72 35 110.5t29 65.5q6 25 14 35t25 10q20 0 20 3t-20 19q-23 17 -68 17h-14q-15 -1 -26 -1 q-32 0 -32 10q0 3 2 7q10 16 64 45q92 49 116.5 73t59.5 95q27 55 66 105.5t63.5 77t24.5 34.5q0 20 68.5 84t115.5 88q41 23 87 28q15 2 29 2q27 0 48 -7q21 -10 21 -21q0 -3 -1 -6q-4 -8 -16 -8q-8 0 -35 -17.5t-80 -17.5q-47 0 -61.5 -10t-50.5 -72q-51 -82 -103 -196 q-35 -77 -35 -104q0 -8 4 -11q6 -8 38 -8q33 0 92 8q104 16 163 16q57 0 60 -18q0 -10 -24.5 -19.5t-39.5 -25.5q-25 -31 -181.5 -63.5t-170.5 -49.5q-16 -18 -69.5 -168.5t-86.5 -273.5q-33 -117 -55 -117q-6 0 -12 6q-27 20 -27 0q0 -14 19 -34q20 -20 20 -35t-22 -78 q-31 -86 -56 -86q-16 0 -27.5 -9.5t-13.5 -11.5t-20 9q-23 14 -55.5 1.5t-38.5 -1.5zM100 -231q0 14 13.5 14t13.5 -6q0 -8 -16 -15q-3 -1 -6 -1q-5 0 -5 8zM145 90q3 -3 9 -3q11 0 34 11q35 15 35 29q0 31 -49 0q-32 -19 -32 -31q0 -3 3 -6zM354 553q-5 -8 -5 -15 q0 -8 7 -14q5 -6 11 -6q7 0 16 8q14 11 14 21q0 8 -8 14q-8 5 -15 5q-11 0 -20 -13z" />
<glyph unicode="g" horiz-adv-x="974" d="M20 -220.5q0 7.5 19 36.5q25 37 49 28q14 -4 20.5 -1t3.5 12.5t-16 21.5q-16 16 2.5 38t36.5 5q14 -10 24.5 -11t17.5 4t26.5 -7t46.5 -43l51 -58l61 41q41 27 51.5 42.5t5.5 28.5t4 58t42 111q47 98 80 194q25 72 25 93q0 7 -2 8t-4 1q-19 0 -122 -48q-135 -62 -165 -62 h-5q-12 2 -26 25t-15.5 34t9.5 31q16 33 28 41q23 14 -2 29q-16 10 -39 4t-26.5 -3t2.5 20q10 25 20 65q18 78 72.5 150.5t118 120t114 76t76.5 36.5q15 4 49 4q23 0 53 -2q78 -4 93 -12q14 -8 -0.5 -36t-10.5 -34q6 -4 59.5 5.5t80.5 21.5q23 10 24 -27q1 -7 1 -15 q0 -55 -38 -116q-39 -61 -55 -96l-76 -166q-49 -102 -77.5 -187t-44.5 -114q-25 -49 -25 -61q0 -8 -35 -57.5t-35 -57.5q0 -18 -90 -106.5t-108 -88.5q-14 0 -51 -19.5t-71 -37.5t-76 -29q-14 -3 -26 -3q-24 0 -41 14q-33 20 -32.5 38.5t-28.5 38.5q-23 14 -23 21.5z M24 -104q-2 3 -2 9q0 7 5 21q12 33 34 11q23 -20 -2 -35q-2 -2 -6 -4q-13 -4 -20 -4q-6 0 -9 2zM59 29.5q0 13.5 7 13.5q8 0 14 -14q4 -12 -6 -13q-15 0 -15 13.5zM280 336q5 -5 14 -5q23 0 71 29q45 27 73 27q23 0 92.5 41t77.5 45q18 6 92 127q43 74 54 106q4 15 4 26 q0 16 -8 26q-13 20 -60 45q-41 23 -98 25h-9q-50 0 -73 -17q-33 -29 -97.5 -151.5t-64.5 -159.5q0 -23 -41 -84q-32 -45 -32 -67q0 -8 5 -13zM572 117q4 -4 9 -4q7 0 17 10q12 14 12 19t-6 5h-3q-7 0 -19 -8q-13 -8 -13 -15q0 -4 3 -7z" />
<glyph unicode="h" horiz-adv-x="888" d="M20 -48q-1 3 0 7q0 19 19 64q4 10 5 16t5 16.5t6 17.5t6.5 18t6.5 21.5t5 21.5t6 23.5t5 24.5q70 332 96 363q18 23 25.5 90t30.5 98q28 38 28 64q0 29 37 123t61 129q25 37 25 53q-1 24 23 52q14 16 30 16q12 0 25 -9q14 -12 12 -55t-18 -64q-12 -13 -12 -40 q0 -10 2 -23q6 -45 -7 -47q-14 -10 -14 -37q0 -16 -8 -45t-27.5 -119t-42.5 -229q-6 -45 6 -45q14 0 50 36.5t36 51.5q0 23 121 134.5t178 139.5q70 35 84 35q8 0 10.5 -20.5t-2 -47t-11.5 -39t-1 -26.5q7 -15 13 -35q2 -6 1 -13q0 -21 -12 -57q-8 -23 -18 -56.5 t-16.5 -49.5t-14.5 -36.5t-15 -31t-16 -14.5q-20 -10 -29 -46t7 -44q7 -6 7 -28q0 -15 -3 -36q-2 -11 -2 -24q-1 -42 21 -92q28 -64 76 -104t48 -60q0 -22 -54 -42q-43 -16 -85 -16q-11 0 -22 1q-49 4 -58.5 12t-19.5 53q-12 63 -17 68q-4 4 -20.5 -12.5t-36.5 -30t-33 -0.5 q-16 16 13 57q23 31 22.5 38t-20.5 25q-23 23 -25 53.5t20 49.5q16 14 12.5 28.5t-11 29t11.5 44.5q20 35 20 58q0 35 123 264q28 53 28 67q0 5 -3 4h-2q-23 -6 -99 -106q-35 -47 -80 -103.5t-66.5 -84t-42 -58.5t-28.5 -57q-16 -47 -80.5 -164t-89.5 -145q-37 -43 -157 -80 q-44 -12 -48 5zM313 649q2 -1 5 -1q7 0 16 9q10 12 10 24q0 4 -1 9q-2 7 -7 7q-6 0 -17 -13q-13 -16 -13 -25q0 -7 7 -10z" />
<glyph unicode="i" horiz-adv-x="462" d="M23 209q-3 4 -3 9q0 13 17 32q16 16 17 28.5t-11 38.5q-12 22 -12 44q0 11 3 23q9 34 26.5 52.5t40 59.5t32.5 84q8 41 28.5 68.5t41.5 27.5q18 0 10 35q-1 4 -1 9q0 26 30 58q34 38 62 56t38 24q25 12 32 11t11 -19q2 -14 -35 -103.5t-75.5 -206t-38.5 -188.5 q0 -37 -14.5 -54t-8.5 -44q4 -27 -4 -25q-14 8 -29 -18q-14 -27 -35.5 -20.5t-15.5 34.5q8 31 -6 31q-12 2 -31 -27q-18 -27 -38.5 -33t-30.5 13zM57 112.5q0 14.5 13.5 14.5t13.5 -14.5t-13.5 -14.5t-13.5 14.5zM147 141q6 12 21 13q12 0 13 -10.5t-9 -20.5q-5 -5 -11 -5 q-5 0 -11 4q-7 5 -6 11q0 4 3 8zM390 1121.5q-3 3.5 -3 7.5q0 6 6 14q5 10 17 13q6 2 11.5 1.5t10.5 -1.5q10 -3 10 -11q0 -11 -22 -21q-13 -6 -21 -6q-6 0 -9 3.5z" />
<glyph unicode="j" horiz-adv-x="913" d="M35 -66q12 17 25.5 41.5t13.5 44.5q0 35 49 70q44 33 60 33q10 0 10 -12v-2q0 -8 -3 -19q-5 -18 -5 -44q0 -29 7 -68q11 -74 29 -80q3 -1 7 -1q20 0 54 31q40 39 40 66q0 29 59 104q37 47 50 77t20 81q4 39 10 63.5t14 43t34 78t52 126.5q53 135 78 177t51 42 q20 0 43 17.5t32 40t23.5 23.5t24.5 -21q1 -2 1 -5q0 -28 -54 -172q-58 -159 -84 -192q-25 -33 -25 -65q0 -25 -19.5 -59t-21.5 -58q0 -23 -13 -38t-13 -30q0 -49 -81 -178t-136 -166q-63 -45 -155 -87q-83 -38 -114 -38h-6q-27 2 -33 11.5t-4 40.5q0 49 -18 59 q-17 9 -17 25q0 19 15 40zM632 540q-2 -5 -2 -9q0 -8 7 -13q7 -4 13 -4q7 0 14 5q14 9 7 21.5t-20 12.5q-14 0 -19 -13zM780 1110q10 25 40 19.5t9 -33.5q-4 -6 -12 -13q-13 -13 -24 -13q-5 0 -9 3q-8 6 -8 17q0 9 4 20zM862 1136.5q0 8.5 8 13.5q4 2 8 2q5 0 9 -3 q6 -4 6 -12.5t-7 -13.5q-4 -2 -7 -2q-5 0 -9 3q-8 4 -8 12.5z" />
<glyph unicode="k" horiz-adv-x="970" d="M23 -39q-2 3 -2 7q0 15 24 48q23 29 27 54.5t-13 35.5q-16 10 -14 42t21 47q20 16 20 51q0 26 42 100q37 64 37 85q0 3 -1 5q-4 12 2 30.5t30.5 75t47.5 120.5q18 55 36.5 94t30 53t17.5 27.5t6 25.5t8 34t22.5 52.5t22.5 48.5q8 20 20.5 31.5t23.5 16t18.5 11.5t7.5 21 q0 41 26 70q20 25 33 -10q8 -20 41 -17q20 2 25.5 -5t3.5 -34q-2 -37 -38 -115.5t-36 -86.5t-27 -68q-52 -121 -52 -159q0 -17 11 -17q14 0 151.5 100.5t258.5 198.5q68 55 88 55q6 0 8 -6v-8q0 -16 -106.5 -110.5t-157.5 -125.5l-287 -178l64 -63q63 -63 63 -70.5t71 -79.5 t135 -144q54 -60 54 -81q0 -4 -2 -6q-14 -18 -33.5 -18.5t-62.5 -20.5q-31 -16 -41 -15.5t-29 19.5q-20 20 -34.5 21t-22.5 -8t-30.5 -5t-55.5 33q-53 41 -53 61q0 9 12 13q10 4 27 2q37 -4 37 10q0 16 -32 26.5t-46 -2.5q-20 -16 -50 -5.5t-36 36.5q-8 33 -25 37 q-10 4 -33.5 -39t-23.5 -67q0 -31 -34 -85.5t-56 -60.5q-31 -8 -70 -47q-41 -45 -60 -45q-5 0 -9 4zM182 264q14 0 21 17q0 8 -13 10q-23 0 -23 -13q0 -14 15 -14zM313 358l31 -28q27 -27 49.5 -20t22.5 42q0 29 -13.5 33t-54.5 -12zM420 446q-1 -1 -1 -3q0 -4 3 -9 q8 -23 8 -35q0 -8 9.5 -11t21.5 1t18 14q10 18 -26 43q-33 20 -33 0zM594 1186q0 23 15 23l1 -1q16 0 21 -20q2 -4 2 -6q4 -25 -17.5 -25t-21.5 29zM630 140q-3 -5 -3 -8q0 -7 8 -11q5 -3 9 -3t10 4q10 7 10 21q0 10 -13 11q-14 0 -21 -14z" />
<glyph unicode="l" horiz-adv-x="610" d="M25 96q9 85 23 85q1 0 3 -1q6 -4 12 -16q8 -23 33 14q15 28 15 48q0 19 -13 30q-12 8 -13 62.5t11 60.5q8 6 13.5 25.5t16.5 51t32 60.5q27 35 44 123t50 176q29 72 41 89.5t31 10.5q23 -8 22 -4q0 2 -6 11q-27 31 -10 47q16 16 16 35q0 29 57.5 102.5t100.5 97.5 q50 31 64 33h2q12 -1 19 -17q1 -3 1 -6q0 -26 -38 -116q-44 -104 -69 -125q-26 -26 -26 -49q0 -20 -20.5 -64.5t-20.5 -68.5q0 -14 -36 -110.5t-81 -256.5t-63 -311q-14 -115 -21 -127q-10 -14 -21.5 -10t-11.5 20q0 41 -30 4q-12 -12 -23 -31q-23 -39 -51 -46q-6 -2 -11 -2 q-20 0 -36 20q-11 14 -11 67q0 35 5 88zM160 130q4 -3 8 -2q7 0 14 7q9 9 9 15q0 7 -11 10q-4 2 -7 2q-8 0 -13 -10q-5 -7 -5 -12.5t5 -9.5z" />
<glyph unicode="m" horiz-adv-x="1249" d="M26 -26q-5 7 -6 26q0 21 7 55q12 78 63 239t76 193q25 35 24 56q0 25 38 91t63 89q31 25 31 54.5t16 27.5l45 -2q12 -2 17.5 -6t1.5 -36t-21 -95q-14 -45 -8 -54q4 -2 43 35t109.5 97.5t131.5 95.5q104 57 114.5 57t27.5 -37q8 -18 4 -54t-14.5 -73t-20.5 -73.5t-13 -56 t7 -23.5q6 0 83 72.5t165 144t123 71.5q23 0 -22.5 -44t-117 -108.5t-90.5 -92.5q-8 -12 -41 -54.5t-62.5 -85.5t-45.5 -75q-100 -203 -137 -256.5t-99 -83.5q-65 -34 -84 -34q-4 0 -6 1q-9 5 -9 30q0 41 25 135q41 152 131 373q43 107 43 131q0 6 -2 7q-1 1 -3 1 q-20 0 -91 -94q-78 -102 -162 -239t-114 -217q-23 -59 -41.5 -89t-31.5 -37t-42 -19.5t-55 -30.5q-38 -28 -50 -12zM812 56q-2 7 -2 14.5t2 15.5q5 16 17 27q14 12 17.5 34.5t27.5 57.5q25 33 25 60q0 34 6 34q10 5 8 31v7q0 24 13 58q20 41 20 56q0 10 10.5 31.5t38 83 t56.5 143.5q31 84 75 100q8 3 14 3q12 0 19 -11q8 -14 35 -15q29 0 34 -18q1 -5 1 -14q0 -22 -8 -66q-16 -90 -39 -92q-8 0 -19 10q-29 23 -28 -2q0 -14 14 -45q14 -33 14 -48t-14 -50q-18 -47 -47 -152.5t-39 -161.5q-10 -72 -30.5 -104.5t-74.5 -67.5q-61 -37 -74 -37 q-3 0 -3 3q0 4 4 22q8 23 -12.5 51.5t-43.5 28.5q-12 -1 -17 13z" />
<glyph unicode="n" horiz-adv-x="944" d="M22 -22q-1 6 -2 13q0 13 4 27q6 24 17 43q20 41 20 80q0 43 54.5 183.5t79.5 160.5q18 14 18 47q0 29 46 110t79 114q33 29 70 39q9 2 16 2q33 0 31 -37q0 -27 -52 -185q-4 -18 -10 -34q-4 -16 10 -17q23 2 62 39q59 55 162.5 130t167.5 106q77 39 100 39h4q25 -4 25 -48 v-6q-2 -50 -31 -108q-35 -74 -35 -92q0 -8 -40 -106.5t-48 -149.5q-6 -49 -17.5 -82t-15.5 -72q-2 -27 -9 -44t-10 -23.5t1 -21.5t22 -48q35 -66 35 -82q0 -10 20.5 -34.5t20.5 -63.5q0 -35 -5 -41t-32 -2q-27 6 -51 -6q-25 -13 -41 -25q-13 -10 -35 -10q-6 0 -12 1 q-31 3 -70 33q-20 16 -23 26.5t7 29.5q16 31 16 59q0 47 -45 86q-31 28 -35 44q-1 6 -1 16q0 18 4 49q6 45 13 66.5t16 29.5t27.5 47t39.5 107q16 51 35.5 89t30 54t10.5 20q0 8 29.5 54.5t55 91.5t18.5 52q-1 1 -2 1q-13 -1 -80 -53q-75 -58 -118 -103l-84 -88 q-41 -43 -105.5 -138t-105.5 -173q-33 -66 -56 -92.5t-83 -63.5q-90 -57 -102 -57q-7 1 -11 17zM606 -154q-3 -8 -3 -14q0 -12 11 -16q2 -1 5 -1q8 0 12 11q4 6 4 12q0 8 -8 17q-4 4 -8 4q-7 0 -13 -13z" />
<glyph unicode="o" horiz-adv-x="878" d="M20 258q0 14 29 47t6 53q-12 12 -12 21.5t12 34.5q18 33 47 98.5t29 75.5q0 27 100.5 140.5t124.5 113.5h1q16 0 63 30q58 38 114 58q54 20 82 19h2q28 -1 41 -11q12 -14 21.5 -8t36 3.5t53.5 -28.5l39 -33l-41 -34q-25 -23 -35 -26t-20 9q-14 18 -37 18.5t-23 -18.5 q0 -27 -15 -34t-39 0.5t-48.5 19.5t-50 23.5t-39.5 11.5q-29 0 -74 -55.5t-82 -137.5q-57 -123 -75.5 -176t-24.5 -117q-9 -78 -23 -78q-1 0 -2 1q-6 4 -12 26q-8 29 -35 27q-16 0 -16 -17q2 -37 114 -133q69 -56 113 -56h5q46 3 120 73q197 186 197 280q0 37 9 57.5 t12 24.5t-5 39q-10 27 4 40t36.5 16t41 11.5t14.5 22.5q-4 18 4 39q8 20 35 -10q4 -4 8 -10q32 -40 32 -52q-1 -13 -15 -37q-16 -26 -17 -75q-2 -39 -11 -60.5t-21.5 -30t-28.5 -27.5t-29 -48q-23 -59 -124 -145.5t-218 -145.5q-141 -72 -178 -72q-31 0 -86 41t-70 41 q-27 0 -24 15q0 14 28 14q31 0 54 20q16 14 17 24.5t-13 39.5q-20 41 -39 27q-16 -14 -39 -7t-23 27zM677 701q-6 5 -6 14q0 11 9 28q16 30 30 30q10 0 19 -15q8 -14 -16 -41q-23 -27 -36 -16zM727 530q0 -6 6 -10q5 -3 10 -3q8 0 15 9q5 9 5 14q0 7 -8 7h-3q-20 -2 -25 -17 z" />
<glyph unicode="p" horiz-adv-x="1038" d="M23 -307q8 20 26 20q16 0 18.5 -18.5t-11.5 -28.5q-8 -5 -14 -5q-7 0 -13 5q-8 8 -8 17q0 5 2 10zM39 -233q2 20 74 36q37 6 37 23q0 12 -31 12t-58 19q-16 12 -16 25.5t9 30.5t21.5 37.5t24 52.5t11.5 67q0 45 13 63.5t13 42t13.5 40.5t19.5 52q10 72 44 136.5t36 72.5 q2 10 21.5 28.5t43.5 33.5q57 33 57 49q0 9 -16 12q-4 2 -10 2q-31 4 -38 7t0 8.5t13.5 18.5t0.5 30q-1 2 -1 4q0 21 54 65q45 39 65 46q6 2 12 2q12 0 23 -9q15 -9 43 -9q18 0 41 4q59 9 138 9t102 -28q14 -18 61 -19q39 0 54.5 -18.5t-5.5 -38.5q-10 -12 2.5 -27.5t32 -38 t19.5 -41.5q0 -18 6 -22t20 2q29 8 29 -15q-2 -18 -21 -43q-20 -27 -20 -49q0 -20 -76 -86.5t-137 -99.5q-76 -41 -167 -84t-105 -43q-31 -2 -134.5 -43t-111.5 -53q-10 -20 -33 -105q-43 -152 -61 -168q-10 -10 -54 -10q-59 0 -59 19zM289 196v-14q0 -40 10 -45q1 -1 4 -1 q21 0 125 32q121 37 217 74q84 31 131 69.5t57.5 67.5t20.5 55.5t27 36.5q38 20 38 71q0 7 -1 15q-4 47 -34 47h-3q-3 0 -7 -2q-3 -1 -6 -1q-29 0 -79 49q-47 46 -62 46q-2 0 -4 -2q-10 -10 -129 -10h-117l-41 -96q-16 -39 -43.5 -124t-51.5 -141.5t-38 -66.5 q-12 -6 -14 -60z" />
<glyph unicode="q" horiz-adv-x="778" d="M20 112q0 6 19 17q18 10 22.5 37t-12.5 37q-14 8 -14 41q0 27 14 41t14 37q0 18 26 70t26 118q2 55 14 79.5t40 53.5t46 66t60 67.5t128 65.5q80 35 131 37h12q42 0 58 -13q19 -16 45.5 -28.5t59.5 -6.5q41 8 49 -4q1 -1 1 -5q0 -41 -124 -351q-29 -71 -29 -99 q0 -20 14 -20h1q4 0 12 2q2 1 5 1q23 0 75 -68q35 -49 20 -47q-4 0 -10 4q-8 4 -22.5 -9.5t-41.5 -7.5q-8 2 -16 3t-12 -1t-4 -4q6 -55 69 -78q35 -10 46.5 -31.5t3 -45t-21.5 -47t-23.5 -44t-8.5 -28.5q1 -2 1 -4q0 -22 -54 -97q-59 -83 -98 -114q-45 -33 -117 -68l-72 -35 l-41 64q-37 55 -39 84v5q0 34 23 159q17 98 17 131q0 14 -3 16h-2q-11 0 -93 -41q-70 -36 -99 -36q-8 0 -13 3q-25 13 -25 26q0 14 36 28q25 10 27.5 16t-11.5 18q-20 20 -59 7q-50 -19 -50 -1zM186 244q0 -57 21 -84q14 -20 20 -20.5t29 20.5q51 47 158.5 252.5 t124.5 289.5q4 27 -0.5 40.5t-24.5 29.5q-34 28 -68 28q-22 0 -44 -12q-56 -28 -99 -120q-35 -76 -35 -88.5t-35 -28.5q-27 -10 -28.5 -15.5t16.5 -23.5q23 -27 15 -41q-14 -23 -32 -103.5t-18 -123.5zM479 -117q2 -2 5 -2q6 0 14 7q12 10 30.5 27t32.5 24q25 7 25 24 q0 12 -17 12q-11 0 -11 47q0 14 1 31q1 18 1 32q0 53 -16 53q-2 0 -5 -1q-10 -2 -21 -14q-14 -18 -32 -123q-11 -68 -11 -97q0 -16 4 -20z" />
<glyph unicode="r" horiz-adv-x="929" d="M23 8q-3 2 -3 10q0 46 86 294q101 292 140 335q20 23 30 62q6 27 49.5 65.5t65.5 38.5q12 0 14.5 -14.5t-3 -37t-13.5 -44t-12 -38.5t-2 -22q1 -1 3 -1q13 0 62 40q63 51 131 90t123.5 59.5t102.5 30.5q39 8 65 7h10q28 -2 35 -15q2 -3 2 -5q1 -8 -17 -17 q-24 -12 -65 -24.5t-85 -25t-88 -27.5t-64 -30q-66 -45 -177.5 -199.5t-129.5 -224.5q-12 -45 -43 -131q-20 -59 -38 -79.5t-79 -55.5q-78 -42 -96 -42q-3 0 -4 1z" />
<glyph unicode="s" horiz-adv-x="804" d="M22 130q-2 4 -2 8q0 11 15 28q23 25 22 55q0 63 45 101q29 23 45 -3q8 -16 28 -9q2 1 5 1q18 0 41 -45q20 -37 63.5 -82t59.5 -45q8 0 43 29q34 26 34 79v7q0 52 28 59q25 10 26.5 29.5t-22.5 36.5q-12 8 -24.5 3t-21 -16.5t-16.5 -20.5t-13 -10t-11 15q-5 10 -5 36 q0 16 2 40q2 19 2 39q0 46 -8 104q-3 32 -3 55q-1 30 5 44q10 26 5 47q-8 31 13 30.5t52 26.5l33 29l-78 63l31 23q18 12 21 20t-6 20.5t0 25t50 36.5q63 43 107 43h7q48 0 75 -28q10 -12 4 -19q-12 -12 -29 4q-16 18 -40.5 16.5t-24.5 -20.5q0 -20 36 -20q29 0 29 -13 q-6 -18 -53 -22q-55 0 -67.5 -21.5t-12.5 -122.5q0 -104 -12 -128q-8 -16 -8 -42q0 -11 2 -24q6 -78 6 -139q0 -27 6 -69t4 -60.5t-18 -18.5q-18 0 -21 -26.5t12 -57.5q7 -13 7 -25q0 -18 -16 -36q-28 -28 -120 -74q-106 -52 -160 -62q-16 -3 -32 -3q-37 0 -72 16 q-39 18 -42 24.5t22 20.5q45 31 22 41q-8 4 -26 0q-36 -6 -44 7zM375 638q0 -16 12 -24q4 -2 8 -2q9 0 25 10q22 14 22 27q0 10 -17 16.5t-33 1.5q-18 -6 -17 -29zM750 723q-4 6 -4 13t4 16q8 20 20 20q15 0 15 -11q0 -10 -13 -30q-8 -13 -14 -13q-4 0 -8 5z" />
<glyph unicode="t" horiz-adv-x="729" d="M22 708q-1 2 -1 4q0 13 26 38q23 20 116 56t124 36q27 0 52.5 22.5t25.5 44.5q0 25 55 86l69 76q18 22 31 22q12 0 19 -20q4 -14 4 -30q0 -40 -29 -89q-23 -38 -23 -58q-1 -10 5 -14q12 -10 55 -11q22 0 53 3q50 5 74 5q6 -1 10 -1q21 -2 21 -14q0 -20 -19 -35 q-18 -14 -86.5 -35.5t-95.5 -21.5q-20 0 -34.5 -15.5t-30 -53t-28 -76.5t-36 -115t-43.5 -137q-2 -8 -15.5 -82t-35 -135.5t-56.5 -81.5q-16 -8 -23 -25.5t-9 -32t-7.5 -25.5t-17.5 -11q-20 0 -18 30q2 18 -5.5 23.5t-33.5 3.5h-6q-41 1 -53 25q-4 9 -4 23q0 27 14 71 l38 133q16 55 43 96t48 41q18 0 18 14.5t-27.5 14.5t-27.5 18t18.5 33.5t40.5 15.5q14 0 21.5 8.5t15.5 31t14 34.5q12 20 -8 57t-16 52q3 17 -39 17q-37 0 -107 -13q-20 -4 -32 -6q-38 -10 -44 3zM166 320q0 -17 33 -33q14 -7 24 -7q12 0 21 9q6 6 6 10q0 7 -14 12l-43 15 q-10 3 -16 3q-11 0 -11 -9z" />
<glyph unicode="u" horiz-adv-x="833" d="M20 145.5q0 20.5 27 53.5q14 18 17.5 29.5t1 21.5t3 45t21.5 88q31 104 62 119q37 16 32 30q-2 6 -14 7q-14 0 -6 36q12 57 20.5 63.5t36.5 -15.5q35 -29 60.5 -29t25.5 -10q0 -12 -22.5 -81t-30.5 -81q-10 -14 -28 -100q-13 -64 -13 -84q0 -7 2 -9t16.5 12.5t39 41 t53.5 59.5q119 141 157.5 195.5t116.5 195.5q8 18 22.5 39t34 46.5t41.5 43.5q22 19 42 31q16 10 31 10q3 0 7 -1q18 -3 33 -21q4 -6 4 -19q0 -45 -44 -174q-56 -166 -77 -209q-18 -37 -18 -63v-6q2 -28 -23 -52q-28 -44 -27 -64v-6q6 -18 23 -40.5t10 -46.5q-8 -33 7 -33 q14 0 35.5 -40t21.5 -66.5t-21 -53.5q-16 -18 -21 -18t-20 18q-16 20 -32.5 16t-16.5 -28q0 -20 -22 -37q-6 -5 -12 -5q-10 0 -17 17q-10 25 -67 82q-46 43 -52 61q-5 14 -4 58v29q1 30 1 50q0 40 -5 40q-8 0 -91 -82t-89 -82q-10 0 -94 -47l-82 -47l-29 49q-27 43 -27 63.5 zM203 690q2 18 22 51q18 29 29.5 35t34.5 2q20 -6 28.5 -1.5t12.5 22.5q7 26 18 26h2q12 0 10 -37q0 -41 -8 -64.5t-21.5 -31.5t-27.5 -9t-36.5 -2t-39.5 -5q-25 -8 -24 14zM578 98q5 -5 18 -5q8 0 20 2q34 6 35 28q0 17 -26 31q-24 12 -32 12h-2q-7 -2 -13 -29 q-4 -16 -4 -25.5t4 -13.5z" />
<glyph unicode="v" horiz-adv-x="747" d="M22 610q-1 7 -1 19q0 14 2 37q8 59 29.5 110t41.5 51q27 0 49.5 -26.5t34.5 -71.5l47 -162q38 -139 38 -167q0 -5 -1 -7q-4 -6 -18 -6q-66 0 -66 -62q0 -11 2 -24q6 -31 13.5 -41t23.5 -10q29 0 85 65.5t89 133.5q18 43 54 93t59.5 84t23.5 50q0 35 15.5 57.5t33 31.5 t33 20.5t15.5 25.5q0 10 2 17.5t4 12.5t6 7t7 4t9 2h9.5t10.5 -3t9 -3t9 -3l7 -3q27 -11 27 -21t-10 -37q-14 -35 -31.5 -49t-17.5 -24q0 -27 -39 -104t-70 -111q-33 -39 -33 -56q0 -21 -8 -30q-14 -16 -51 -88t-90 -145t-123 -120q-75 -50 -105 -50q-7 0 -12 3q-6 6 4 21 q10 20 12.5 62t-10.5 57q-12 16 2 45q14 25 14 53q0 16 -5 33q-6 16 -15 10q-10 -4 -11 -29.5t-9 -25.5q-25 0 -33 58t-9 119.5t-5 65.5q-8 8 -9 53q0 25 -5 37.5t-12 13.5t-13.5 7t-8.5 20zM143 648.5q0 -13.5 14.5 -13.5t14.5 13.5t-14.5 13.5t-14.5 -13.5z" />
<glyph unicode="w" horiz-adv-x="1153" d="M21 728q2 15 16 32q25 27 49 26q16 0 29.5 16.5t18.5 26t26 -1.5q18 -14 18 -28.5t-11 -27.5t-29.5 -46t-33.5 -70q-12 -37 -11 -50t16 -27q20 -25 38 -9q11 9 20 9q23 0 32 -58q2 -16 2 -37q2 -45 -3 -61t-28 -30.5t-24 -22t14 -21.5q23 -25 34 -3t31 3q12 -10 23.5 -5 t32.5 34q4 4 110.5 179t200.5 302q28 37 57 41q35 6 44 -4t3 -45q-31 -154 -43 -333q-5 -72 -5 -116q0 -67 11 -73q10 -8 38 35t63 105t43 75q25 37 68.5 121t75.5 124q27 33 54 32q6 0 11 -1q16 -4 26.5 -1t9.5 12.5t-16 17.5q-14 10 10 36q23 25 37 24h1q16 -1 36 -31 q15 -27 15 -36q0 -7 -16 -20q-13 -10 -13 -26q0 -6 -12.5 -26.5t-57.5 -99.5t-102 -192q-61 -123 -85 -157.5t-44 -32.5q-23 0 -28 -16.5t15 -24.5q8 -2 10.5 -7.5t-1.5 -15.5t-9.5 -21.5t-11.5 -29.5t-10 -37q-10 -43 -57 -67q-40 -21 -98 -22q-9 0 -19 1l-76 4l4 72v20 q0 115 -45 115q-27 0 -31 43q-5 45 -18 45q-16 0 -43 -61q-18 -37 -37 -97q-31 -88 -46 -109.5t-46 -21.5q-35 0 -84 -41q-37 -33 -55 -33q-8 0 -13 7q-4 6 2 22q2 4 2 11q0 21 -16 69q-12 35 -11 58q0 18 7 30q10 16 7 28.5t-27 35.5q-39 39 -39 86q0 49 43 108 q33 43 33 60q0 7 -5 10q-6 2 -23.5 -12.5t-37.5 -6.5q-14 4 -11 29q3 24 10 62q2 12 2 28q0 29 -9 66q-8 32 -8 48v6zM57 346q0 -14 13.5 -14t13.5 14t-13.5 14t-13.5 -14zM778 440q-2 -4 -2 -7q0 -5 8 -5q15 0 15 14.5t-6 14.5q-8 0 -15 -17z" />
<glyph unicode="x" horiz-adv-x="811" d="M31 -70q10 20 26 39q12 14 34 48t39 58.5t30 28.5q20 6 20 23q0 4 31 50q31 47 51 105q11 30 11 57q0 25 -9 48q-12 33 -5 62.5t20.5 51t9.5 51.5t-39 60q-32 32 -32 66v6q3 37 -9 41q-16 8 -13 41t21 49q14 12 22.5 10t22.5 -22q25 -31 62 -31h4q18 2 18 14q0 14 14 15 q10 0 8 -18.5t-5 -40t16 -37.5q18 -16 20 -35t-14 -25q-8 -2 5 -21.5t33.5 -38t31.5 -18.5q12 0 22 29q8 27 69.5 121t137.5 175q55 59 85 59q11 0 19 -9q2 -1 2 -5q0 -15 -22 -59q-28 -58 -53 -85q-8 -10 -63.5 -132t-125.5 -215q-18 -27 -23 -53t0 -40.5t3 -22.5t-19 -6 q-14 2 -19 -8.5t-7 -41.5q0 -29 5 -41t14 -6t20 31q16 33 28 33q11 0 19 -25q6 -14 15 -28.5t16.5 -21.5t10.5 -13t-1 -9.5t-21 -7.5q-25 -8 -27.5 -20t19.5 -21q31 -12 27 -32q-2 -12 -19 -11q-23 4 -22 -10t20 -10q8 1 18 2q22 0 51 -7q42 -9 42 -20q0 -8 -19.5 -12 t-37 -9t-15.5 -16q2 -16 -18 -18h-8q-46 0 -103 43q-10 8 -20.5 16.5t-16.5 12.5l-12 8t-7 7t-3 7t1 7t6 7.5t9 12.5q14 16 13 56t-17 50q-1 1 -2 1q-12 0 -54 -47q-46 -52 -101.5 -120.5t-124 -126t-115.5 -57.5q-12 0 -12 12.5t12 38.5zM322 463q4 -6 14 -6q18 2 49 43 q25 33 25 47q0 4 -2 6q-9 14 -21 14q-18 0 -41 -30q-28 -35 -28 -58q0 -9 4 -16z" />
<glyph unicode="y" horiz-adv-x="653" d="M29 -150q16 23 47 23q46 0 46 61q0 16 -3 37q-1 8 -1 16q0 36 21 74q25 41 41 107q11 42 11 66q0 14 -3 22q-4 10 3.5 16.5t27.5 8.5q25 2 33 10t8 35q0 41 -24 45q-12 2 -18.5 -4.5t-6.5 -20.5q0 -23 -9 -22.5t-30.5 8.5t-56.5 0q-18 -6 -25 18q-4 16 1 19.5t22 -0.5 q35 -12 28 6q-4 10 -20 28q-18 20 -18 31q0 12 24 12q16 0 41 -6q102 -27 108 -30q3 -2 7 -2q17 0 53 34q43 41 29 41t-21 19q-2 4 -2 9q0 24 43 62q43 39 43 62q0 4 -2 8q-3 8 -3 19q0 40 41 120q52 101 85 101q16 0 39 35q19 29 31 29q8 0 12 -15q3 -9 3 -24t-3 -36 q-10 -61 -30.5 -108t-39.5 -47q-16 0 -18 -12.5t12 -20.5q5 -3 5 -15q0 -18 -10 -53q-18 -61 -42 -98q-23 -33 -23 -49q0 -12 -18 -44t-45 -81t-41 -92q-10 -31 -66 -172q-29 -70 -98.5 -156t-116.5 -106q-33 -15 -52 -15q-13 0 -19 7q-8 8 -8 18t8 22zM45 649q-15 0 -15 12 q0 15 23 48q45 70 92 75h5q31 0 38 -51q8 -39 22.5 -106.5t21.5 -107.5q4 -21 4 -32q0 -10 -3 -12q-2 -2 -7 -2q-12 0 -36 12q-37 18 -57 -4q-12 -13 -28 -13q-12 0 -27 7q-25 10 -29 25q-2 5 -2 18q0 18 4 51q2 27 2 44q0 36 -8 36zM95 608q3 -12 14.5 -12t23.5 10 q9 9 9 16.5t-9 14.5q-6 4 -11 4q-10 0 -20 -12q-8 -8 -8 -16q0 -3 1 -5z" />
<glyph unicode="z" horiz-adv-x="937" d="M23 -33q14 29 77 99l238 258q158 176 250 264q25 23 45 44t29.5 34.5t7.5 15.5q-3 2 -11 2q-22 0 -81 -12q-82 -16 -173.5 -33.5t-109.5 -17.5q-25 0 -23 16q2 18 33 22q27 4 68 25q43 20 181 48q107 22 148 22q11 0 17 -2q6 -1 13 -1q27 0 61 21t48 21q9 0 9 -9 q-2 -16 -35 -51q-27 -29 -78 -95.5t-133 -150.5q-84 -82 -160 -167q-76 -84 -122 -140q-40 -49 -40 -58v-2q6 -3 35 1t109 17.5t164 23.5q220 29 293 29q35 0 35 -7q2 -8 -54 -37l-100 -49q-47 -25 -164 -37q-160 -20 -328 -49.5t-196 -44.5q-34 -17 -47 -17q-8 0 -9 7 q0 4 3 10z" />
<glyph unicode="{" />
<glyph unicode="|" />
<glyph unicode="}" />
<glyph unicode="~" horiz-adv-x="1165" d="M23 393q-8 8 14 42t61 73q82 82 216.5 118t166.5 -16q20 -31 61.5 -30.5t47.5 -24.5q25 -76 53 -84q10 -4 12 10q2 6 2 15q0 12 9.5 16t31.5 2q53 -6 75 -8t52.5 0t39.5 5t34 18.5t38 28.5t48 46q102 100 131 100.5t29 -12.5q0 -25 -108.5 -115t-182.5 -126 q-72 -35 -102.5 -42.5t-85.5 -5.5q-51 4 -74 12.5t-43 30.5q-35 37 -57 37q-18 0 -48 21.5t-84 38.5q-127 43 -194 -56q-29 -39 -80 -72.5t-63 -21.5z" />
<glyph unicode="&#xa2;" />
<glyph unicode="&#xa3;" horiz-adv-x="1028" d="M20 143q0 41 117 108.5t182 67.5q59 0 87 24t46.5 78t32.5 77q16 25 23.5 65.5t13.5 66t23 25.5q33 2 33 13q0 20 -54 30q-27 4 -53 2q-41 -6 -73.5 -0.5t-32.5 17.5q0 4 39.5 23.5t92 41t81.5 25.5q47 10 47 37q0 47 99 171t175 171q63 41 72 41q43 0 -27 -76 q-35 -37 -59.5 -80t-51 -99.5t-36.5 -78.5q-29 -53 -13.5 -66.5t107.5 -15.5q68 -2 91.5 -7t25.5 -20q4 -20 -63.5 -44.5t-119.5 -20.5q-59 4 -86.5 -16.5t-58.5 -92.5q-41 -90 -41 -100t-43 -104q-2 -8 -8 -21q-25 -53 -25 -65.5t31 -32.5q27 -18 47 -35q33 -27 63.5 -24 t51.5 -11q16 -12 18 -19.5t-10 -21.5q-29 -35 2 -33q14 0 43 15q37 20 62.5 16t40 -15.5t10.5 -17.5q-8 -14 16 -26q27 -16 13.5 -24.5t-42.5 3.5q-25 12 -64.5 8t-39.5 -18q0 -23 -29 -6q-12 6 -20 18q-12 16 -19.5 16.5t-27.5 -18.5q-20 -20 -28.5 -19t-29.5 21 q-27 31 -67 31q-33 0 -56.5 8t-32 12.5t-33 -7t-73.5 -44.5q-86 -61 -168 -100l-80 -37l-53 25q-80 39 -41 45q6 2 14 2q25 0 40.5 25.5t15.5 64.5q0 29 -15.5 32t-33 -8.5t-33 -14.5t-15.5 13zM205 176q-8 -23 9 -50.5t38.5 -27.5t47.5 34t15.5 49.5t-57.5 13.5t-53 -19z " />
<glyph unicode="&#xa7;" />
<glyph unicode="&#xab;" horiz-adv-x="923" d="M20 381q0 12 110 104.5t110 98.5q0 12 20 18q18 8 105.5 94t160 152.5t72.5 40.5q0 -23 -106.5 -136.5t-227.5 -217.5q-109 -94 -104 -107q4 -10 29.5 -26.5t49 -39t25.5 -47.5q4 -29 22.5 -47t27 -23t-4.5 -28q-45 -55 62 -63q16 -2 39 -2q27 0 29.5 -3.5t-7.5 -17.5 q-18 -20 -49 -12q-27 6 -32 -9.5t16 -35.5q23 -23 -2 -29q-37 -10 -76 37q-10 12 -19 27q-27 53 -51 57q-39 6 -42 25.5t9.5 45t-0.5 58.5q-8 20 -10 20q-4 2 -14 -18q-2 -4 -4 -12q-6 -16 -10.5 -29.5t-4.5 -22t-1 -14.5t-3 -8t-8 -2q-14 0 -27.5 27.5t-7.5 45t-35 53.5 t-41 46zM407 384q-1 9 14 28.5t45 47t83 72.5q166 141 220.5 183.5t68.5 42.5q12 0 33.5 20.5t29.5 14.5q12 -8 -75 -86t-182 -161t-95 -97q0 -12 75.5 -71t84.5 -87q4 -18 14 -24.5t22.5 -5.5t34 -5t41.5 -25q49 -45 35 -55q-4 -4 -25 6q-33 16 -47 2q-8 -8 4 -20 q16 -16 14.5 -33.5t-20.5 -17.5q-8 0 -14 6t-6 12q0 20 -18.5 35.5t-47 2.5t-20.5 -36q6 -20 -14 -20q-14 0 -27.5 19.5t-38.5 23.5q-31 6 -37 24q-4 10 0 12.5t14 -2.5q23 -8 30 1.5t-5 25.5q-16 18 -59 10q-29 -4 -44.5 2.5t-39.5 34.5q-33 39 -29 71t-6 32q-12 8 -13 17z M487 311.5q0 -20.5 14.5 -20.5t14.5 20.5t-14.5 20.5t-14.5 -20.5zM653 277.5q0 -13.5 13.5 -13.5t13.5 13.5t-13.5 13.5t-13.5 -13.5z" />
<glyph unicode="&#xad;" horiz-adv-x="659" d="M20 379q0 25 82.5 56.5t221.5 62.5q55 12 130.5 19t130 6t54.5 -11q0 -8 -62.5 -26.5t-68.5 -30.5q-12 -18 -66.5 -32.5t-197.5 -35.5q-209 -31 -219 -20q-4 2 -5 12z" />
<glyph unicode="&#xbb;" horiz-adv-x="927" d="M20 45q-6 12 44.5 67.5t68.5 55.5q6 0 26.5 18.5t66.5 58.5t96 77q92 70 92 82t-41 47q-33 29 -43.5 79t-21.5 88.5t-46 51.5q-31 8 -26.5 38.5t34.5 24.5q31 -4 39 10q10 16 44 14.5t34 -20.5q0 -20 -14.5 -20t-14.5 -12.5t21 -6.5q31 12 29 -24q-2 -27 -21 -66 q-43 -84 2 -78q6 0 12 2q14 4 20.5 0t6.5 -20q0 -25 20.5 -38t20.5 -25q0 -35 45 -3q29 25 37 25q49 0 -80 -100q-72 -53 -178.5 -143.5t-173 -143.5t-74.5 -53q-14 0 -25 14zM332 628.5q0 -14.5 7 -17.5t15 3.5t8 14.5t-8 14t-15 3t-7 -17.5zM417 -30.5q1 10.5 5 22.5 q10 49 80.5 114.5t153.5 129t104 90.5q12 16 28.5 27.5t25.5 16.5t22 9q14 8 15 11t-15 13q-20 10 -37 7.5t-28 -11t-21.5 -4.5t-18.5 25q-8 20 -21.5 34.5t-17.5 18.5t0 17.5t25 39.5q39 49 51 33q4 -2 4 -10t-20.5 -28.5t-20.5 -37.5q0 -10 2 -12t7 2t12.5 8t19.5 5.5 t27 -7.5q18 -10 38.5 -8t27.5 5t13.5 -3t-4.5 -33q-6 -25 -3 -34t16 -9q53 0 -43 -77q-39 -31 -140.5 -129.5t-182.5 -173t-99 -74.5q-4 0 -5 6t0 16.5zM610 750q-8 51 13 51q20 0 43 -47q14 -31 14 -42.5t-12 -21.5q-42 -34 -58 60zM643 592q-16 17 4 31q41 25 41 -9 q0 -20 -15.5 -28t-29.5 6zM709 734.5q-10 7.5 0 23.5q10 18 26 4q10 -8 -3 -21.5t-23 -6zM725 670q8 20 27 20q33 0 6 -41q-10 -16 -25.5 -7.5t-7.5 28.5z" />
<glyph unicode="&#xbf;" />
<glyph unicode="&#xc0;" />
<glyph unicode="&#xc1;" />
<glyph unicode="&#xc2;" />
<glyph unicode="&#xc4;" />
<glyph unicode="&#xc7;" />
<glyph unicode="&#xc8;" />
<glyph unicode="&#xc9;" />
<glyph unicode="&#xca;" />
<glyph unicode="&#xcb;" />
<glyph unicode="&#xce;" />
<glyph unicode="&#xcf;" />
<glyph unicode="&#xd1;" />
<glyph unicode="&#xd3;" />
<glyph unicode="&#xd4;" />
<glyph unicode="&#xd6;" />
<glyph unicode="&#xd9;" />
<glyph unicode="&#xda;" />
<glyph unicode="&#xdb;" />
<glyph unicode="&#xdc;" />
<glyph unicode="&#xdf;" />
<glyph unicode="&#xe0;" />
<glyph unicode="&#xe1;" />
<glyph unicode="&#xe2;" />
<glyph unicode="&#xe4;" />
<glyph unicode="&#xe7;" />
<glyph unicode="&#xe8;" />
<glyph unicode="&#xe9;" />
<glyph unicode="&#xea;" />
<glyph unicode="&#xeb;" />
<glyph unicode="&#xee;" />
<glyph unicode="&#xef;" />
<glyph unicode="&#xf3;" />
<glyph unicode="&#xf4;" />
<glyph unicode="&#xf6;" />
<glyph unicode="&#xf9;" />
<glyph unicode="&#xfa;" />
<glyph unicode="&#xfb;" />
<glyph unicode="&#xfc;" />
<glyph unicode="&#x2000;" horiz-adv-x="682" />
<glyph unicode="&#x2001;" horiz-adv-x="1365" />
<glyph unicode="&#x2002;" horiz-adv-x="682" />
<glyph unicode="&#x2003;" horiz-adv-x="1365" />
<glyph unicode="&#x2004;" horiz-adv-x="455" />
<glyph unicode="&#x2005;" horiz-adv-x="341" />
<glyph unicode="&#x2006;" horiz-adv-x="227" />
<glyph unicode="&#x2007;" horiz-adv-x="227" />
<glyph unicode="&#x2008;" horiz-adv-x="170" />
<glyph unicode="&#x2009;" horiz-adv-x="273" />
<glyph unicode="&#x200a;" horiz-adv-x="75" />
<glyph unicode="&#x2010;" horiz-adv-x="659" d="M20 379q0 25 82.5 56.5t221.5 62.5q55 12 130.5 19t130 6t54.5 -11q0 -8 -62.5 -26.5t-68.5 -30.5q-12 -18 -66.5 -32.5t-197.5 -35.5q-209 -31 -219 -20q-4 2 -5 12z" />
<glyph unicode="&#x2011;" horiz-adv-x="659" d="M20 379q0 25 82.5 56.5t221.5 62.5q55 12 130.5 19t130 6t54.5 -11q0 -8 -62.5 -26.5t-68.5 -30.5q-12 -18 -66.5 -32.5t-197.5 -35.5q-209 -31 -219 -20q-4 2 -5 12z" />
<glyph unicode="&#x2012;" horiz-adv-x="659" d="M20 379q0 25 82.5 56.5t221.5 62.5q55 12 130.5 19t130 6t54.5 -11q0 -8 -62.5 -26.5t-68.5 -30.5q-12 -18 -66.5 -32.5t-197.5 -35.5q-209 -31 -219 -20q-4 2 -5 12z" />
<glyph unicode="&#x2013;" horiz-adv-x="1064" d="M20 379q0 25 136.5 56.5t366.5 62.5q91 12 216 19t215 6t90 -11q0 -8 -103.5 -26.5t-113.5 -30.5q-20 -18 -110 -32.5t-326 -35.5q-346 -31 -363 -20q-6 2 -8 12z" />
<glyph unicode="&#x2014;" horiz-adv-x="2088" d="M20 379q0 25 273 56.5t733 62.5q182 12 431.5 19t430 6t180.5 -11q0 -8 -207 -26.5t-226 -30.5q-40 -18 -220.5 -32.5t-653.5 -35.5q-691 -31 -724 -20q-14 2 -17 12z" />
<glyph unicode="&#x201c;" horiz-adv-x="753" d="M25 956q-12 35 6 72t44.5 67t26.5 40q0 29 80 71q70 35 70 13q0 -2 -14.5 -27t-32 -67t-21.5 -85q-6 -49 -12 -59t-37 -10q-18 0 -36.5 -4t-30 -10.5t-20.5 -10.5t-14 -2t-9 12zM416 897q-56 66 67 195q53 53 111.5 90t86.5 47t36 10q37 2 2 -25q-18 -12 -49 -28 q-51 -27 -76 -64t-35 -104q-8 -61 -22.5 -85t-55.5 -44q-31 -16 -40 -15.5t-25 23.5zM432 937q0 -13 20.5 -13t20.5 13t-20.5 13t-20.5 -13z" />
<glyph unicode="&#x201e;" horiz-adv-x="565" d="M21.5 -201.5q5.5 13.5 29.5 33.5q29 23 35 39t2 63q-4 68 12 68q8 0 8.5 11.5t-2.5 23.5t3 24q18 29 34 -12q6 -18 9 -45q4 -41 9 -49t27 -2q39 10 37 -14q-6 -39 -84 -101q-31 -23 -63 -39q-31 -12 -46.5 -13t-10 12.5zM188 59q16 27 39 -4q18 -29 0 -37q-4 -2 -10 -2 q-18 0 -27.5 13.5t-1.5 29.5zM291 -227q2 14 22 37t41 108.5t13 112.5q-6 18 8 32.5t14 36.5q0 27 27 27q18 0 23 6t3 25.5t0 27.5q0 10 54 7q37 -4 43 -11.5t6 -48.5q-8 -139 -18.5 -183t-45.5 -81q-80 -82 -159 -107q-31 -10 -31 11z" />
<glyph unicode="&#x2022;" />
<glyph unicode="&#x202f;" horiz-adv-x="273" />
<glyph unicode="&#x205f;" horiz-adv-x="341" />
<glyph unicode="&#x20ac;" horiz-adv-x="884" d="M21.5 315.5q3.5 16.5 23.5 36.5q18 18 20.5 31.5t-6.5 40.5q-16 45 20 121t36 90q0 39 76.5 135t154.5 156q78 59 125 102q53 49 211 130t180 42q6 -10 -8 -23.5t-38.5 -23.5t-47.5 -10q-33 0 -96.5 -34t-89.5 -67q-10 -12 -35 -28.5t-43.5 -29.5t-18.5 -23 q0 -18 -43 -58q-35 -35 -57.5 -73.5t-13.5 -49.5q6 -4 40.5 -2t76.5 4t85 -8q55 -14 78 6q25 25 48.5 18t38 -24.5t31.5 -37t30 -19.5q6 0 9 -4t1 -11q-8 -12 -49 -8t-47 -4q-8 -14 -207 -14h-201l-31 -51q-23 -39 -26 -39q-4 0 -6 18q-4 16 -14.5 24.5t-20.5 3.5t-12 -22 q-8 -78 6 -94q10 -20 37.5 -16t50 15t54.5 24.5t54 13.5q29 0 43.5 15.5t87 21.5t139 0t66.5 -21q0 -25 -124 -60.5t-212 -39.5q-127 -4 -153.5 -29.5t14.5 -107.5q20 -43 44 -77t35 -49.5t11 -27.5q0 -23 12.5 -23.5t20.5 19.5q4 12 18.5 12t35 -5t48 -8t60.5 1 q61 10 47 -8q-10 -14 -68 -43q-96 -47 -147 -59.5t-133 -8.5q-31 2 -36 11.5t-3 62.5q2 70 -19 78q-12 4 -12 -4t3 -21.5t-7 -21.5q-8 -4 -8 -17.5t3 -26t1 -21.5t-14 -9q-23 0 -38.5 24.5t-17.5 63.5q-2 29 -15 51.5t-26.5 34.5t-24 25.5t-7 30zM115 292q0 -13 20.5 -13 t20.5 13t-20.5 13t-20.5 -13zM842 758q-18 0 0 22q6 6 8 6q6 0 6 -14t-14 -14z" />
<glyph unicode="&#x25fc;" horiz-adv-x="952" d="M0 0v952h952v-952h-952z" />
</font>
</defs>
</svg>
